<svg width="368" height="584" viewBox="0 0 368 584" fill="none" xmlns="http://www.w3.org/2000/svg">
<g filter="url(#filter0_d_1_6)">
<path d="M35 54C35 47.3726 40.3726 42 47 42H321C327.627 42 333 47.3726 333 54V464C333 507.078 298.078 542 255 542H47C40.3726 542 35 536.627 35 530V54Z" fill="#E6D9D0"/>
<path d="M47 42.5H321C327.351 42.5 332.5 47.6487 332.5 54V464C332.5 506.802 297.802 541.5 255 541.5H47C40.6487 541.5 35.5 536.351 35.5 530V54C35.5 47.6487 40.6487 42.5 47 42.5Z" stroke="black"/>
</g>
<path d="M70 81.5H301C307.351 81.5 312.5 86.6487 312.5 93V233C312.5 254.815 294.815 272.5 273 272.5H70C63.6487 272.5 58.5 267.351 58.5 261V93C58.5 86.6487 63.6487 81.5 70 81.5Z" fill="#6A6581" stroke="black"/>
<path d="M332.5 69.5H35.5V63.5H57.5V42.5H62V63.5H307.5V42.5H312V63.5H332.5V69.5Z" stroke="black"/>
<line x1="70" y1="90.25" x2="138" y2="90.25" stroke="#641956" stroke-width="1.5"/>
<line x1="70" y1="95" x2="138" y2="95" stroke="#07023C" stroke-width="2"/>
<path d="M143.632 95V89.7227H144.74C145.271 89.7227 145.69 89.7751 145.998 89.8799C146.328 89.9824 146.628 90.1567 146.896 90.4028C147.441 90.8996 147.713 91.5524 147.713 92.3613C147.713 93.1725 147.43 93.8288 146.862 94.3301C146.577 94.5807 146.279 94.755 145.967 94.853C145.675 94.951 145.262 95 144.726 95H143.632ZM144.429 94.2515H144.788C145.145 94.2515 145.443 94.2139 145.68 94.1387C145.917 94.0589 146.131 93.9325 146.322 93.7593C146.714 93.4015 146.91 92.9355 146.91 92.3613C146.91 91.7826 146.716 91.3132 146.329 90.9531C145.98 90.6318 145.467 90.4712 144.788 90.4712H144.429V94.2515ZM148.805 92.3374C148.805 91.5946 149.077 90.9565 149.622 90.4233C150.164 89.8901 150.816 89.6235 151.577 89.6235C152.329 89.6235 152.974 89.8924 153.512 90.4302C154.052 90.9679 154.322 91.6139 154.322 92.3682C154.322 93.127 154.051 93.7707 153.508 94.2993C152.964 94.8302 152.306 95.0957 151.536 95.0957C150.855 95.0957 150.243 94.8599 149.701 94.3882C149.104 93.8664 148.805 93.1828 148.805 92.3374ZM149.608 92.3477C149.608 92.931 149.804 93.4106 150.196 93.7866C150.586 94.1626 151.036 94.3506 151.546 94.3506C152.1 94.3506 152.567 94.1592 152.948 93.7764C153.328 93.389 153.518 92.9173 153.518 92.3613C153.518 91.7985 153.33 91.3268 152.954 90.9463C152.581 90.5635 152.118 90.3721 151.567 90.3721C151.018 90.3721 150.554 90.5635 150.176 90.9463C149.797 91.3245 149.608 91.7917 149.608 92.3477ZM156.938 90.4712V95H156.141V90.4712H154.928V89.7227H158.148V90.4712H156.938ZM161.534 95L162.645 89.3262L164.457 93.4277L166.333 89.3262L167.331 95H166.514L166.005 91.8145L164.443 95.2427L162.925 91.811L162.358 95H161.534ZM171.902 93.7183H169.643L169.055 95H168.197L170.809 89.3911L173.328 95H172.456L171.902 93.7183ZM171.578 92.9697L170.795 91.1753L169.975 92.9697H171.578ZM175.503 90.4712V95H174.706V90.4712H173.493V89.7227H176.713V90.4712H175.503ZM179.561 92.751L181.195 95H180.221L178.714 92.8398H178.57V95H177.774V89.7227H178.707C179.404 89.7227 179.908 89.8537 180.218 90.1157C180.559 90.4074 180.73 90.7925 180.73 91.271C180.73 91.6447 180.623 91.966 180.409 92.2349C180.195 92.5037 179.912 92.6758 179.561 92.751ZM178.57 92.146H178.823C179.577 92.146 179.954 91.8577 179.954 91.2812C179.954 90.7412 179.588 90.4712 178.854 90.4712H178.57V92.146ZM183.138 89.7227V95H182.342V89.7227H183.138ZM185.86 92.2417L184.407 89.7227H185.313L186.321 91.5103L187.381 89.7227H188.294L186.773 92.2417L188.369 95H187.477L186.308 92.98L185.105 95H184.202L185.86 92.2417ZM192.203 89.7227L193.577 93.25L195.013 89.4663L196.387 93.25L197.846 89.7227H198.711L196.352 95.335L194.996 91.5957L193.58 95.3384L191.338 89.7227H192.203ZM200.513 89.7227V95H199.717V89.7227H200.513ZM203.588 90.4712V95H202.791V90.4712H201.578V89.7227H204.798V90.4712H203.588ZM206.655 91.7871H208.931V89.7227H209.728V95H208.931V92.5356H206.655V95H205.858V89.7227H206.655V91.7871ZM216.836 90.5088L216.19 90.8916C216.07 90.682 215.954 90.5452 215.845 90.4814C215.731 90.4085 215.584 90.3721 215.404 90.3721C215.183 90.3721 215 90.4347 214.854 90.5601C214.708 90.6831 214.635 90.8381 214.635 91.0249C214.635 91.2824 214.827 91.4897 215.209 91.647L215.736 91.8623C216.164 92.0355 216.477 92.2474 216.676 92.498C216.874 92.7464 216.973 93.0518 216.973 93.4141C216.973 93.8994 216.811 94.3005 216.488 94.6172C216.162 94.9362 215.757 95.0957 215.274 95.0957C214.816 95.0957 214.438 94.9601 214.14 94.689C213.846 94.4178 213.662 94.0361 213.589 93.5439L214.396 93.3662C214.432 93.6761 214.496 93.8903 214.587 94.0088C214.751 94.2367 214.991 94.3506 215.305 94.3506C215.553 94.3506 215.76 94.2674 215.924 94.1011C216.088 93.9347 216.17 93.724 216.17 93.4688C216.17 93.3662 216.155 93.2728 216.125 93.1885C216.098 93.1019 216.054 93.0233 215.992 92.9526C215.933 92.8797 215.855 92.8125 215.76 92.751C215.664 92.6872 215.55 92.6268 215.418 92.5698L214.909 92.3579C214.186 92.0526 213.825 91.606 213.825 91.0181C213.825 90.6216 213.977 90.29 214.28 90.0234C214.583 89.7546 214.96 89.6201 215.411 89.6201C216.019 89.6201 216.495 89.9163 216.836 90.5088ZM219.842 90.4712V95H219.046V90.4712H217.832V89.7227H221.052V90.4712H219.842ZM225.025 90.4712H222.909V91.7393H224.964V92.4878H222.909V94.2515H225.025V95H222.113V89.7227H225.025V90.4712ZM228.209 92.751L229.842 95H228.868L227.361 92.8398H227.217V95H226.421V89.7227H227.354C228.051 89.7227 228.555 89.8537 228.865 90.1157C229.207 90.4074 229.378 90.7925 229.378 91.271C229.378 91.6447 229.27 91.966 229.056 92.2349C228.842 92.5037 228.56 92.6758 228.209 92.751ZM227.217 92.146H227.47C228.225 92.146 228.602 91.8577 228.602 91.2812C228.602 90.7412 228.235 90.4712 227.501 90.4712H227.217V92.146ZM231.785 89.7227V95H230.989V89.7227H231.785ZM233.14 92.3374C233.14 91.5946 233.412 90.9565 233.957 90.4233C234.499 89.8901 235.151 89.6235 235.912 89.6235C236.664 89.6235 237.309 89.8924 237.847 90.4302C238.387 90.9679 238.657 91.6139 238.657 92.3682C238.657 93.127 238.385 93.7707 237.843 94.2993C237.299 94.8302 236.641 95.0957 235.871 95.0957C235.19 95.0957 234.578 94.8599 234.036 94.3882C233.439 93.8664 233.14 93.1828 233.14 92.3374ZM233.943 92.3477C233.943 92.931 234.139 93.4106 234.531 93.7866C234.921 94.1626 235.371 94.3506 235.881 94.3506C236.435 94.3506 236.902 94.1592 237.283 93.7764C237.663 93.389 237.853 92.9173 237.853 92.3613C237.853 91.7985 237.665 91.3268 237.289 90.9463C236.916 90.5635 236.453 90.3721 235.902 90.3721C235.353 90.3721 234.889 90.5635 234.511 90.9463C234.132 91.3245 233.943 91.7917 233.943 92.3477ZM245.502 90.5088L244.856 90.8916C244.735 90.682 244.62 90.5452 244.511 90.4814C244.397 90.4085 244.25 90.3721 244.07 90.3721C243.849 90.3721 243.666 90.4347 243.52 90.5601C243.374 90.6831 243.301 90.8381 243.301 91.0249C243.301 91.2824 243.492 91.4897 243.875 91.647L244.402 91.8623C244.83 92.0355 245.143 92.2474 245.342 92.498C245.54 92.7464 245.639 93.0518 245.639 93.4141C245.639 93.8994 245.477 94.3005 245.154 94.6172C244.828 94.9362 244.423 95.0957 243.94 95.0957C243.482 95.0957 243.104 94.9601 242.805 94.689C242.511 94.4178 242.328 94.0361 242.255 93.5439L243.062 93.3662C243.098 93.6761 243.162 93.8903 243.253 94.0088C243.417 94.2367 243.656 94.3506 243.971 94.3506C244.219 94.3506 244.425 94.2674 244.59 94.1011C244.754 93.9347 244.836 93.724 244.836 93.4688C244.836 93.3662 244.821 93.2728 244.791 93.1885C244.764 93.1019 244.719 93.0233 244.658 92.9526C244.599 92.8797 244.521 92.8125 244.425 92.751C244.33 92.6872 244.216 92.6268 244.084 92.5698L243.574 92.3579C242.852 92.0526 242.491 91.606 242.491 91.0181C242.491 90.6216 242.642 90.29 242.946 90.0234C243.249 89.7546 243.626 89.6201 244.077 89.6201C244.685 89.6201 245.16 89.9163 245.502 90.5088ZM246.686 92.3374C246.686 91.5946 246.958 90.9565 247.503 90.4233C248.045 89.8901 248.697 89.6235 249.458 89.6235C250.21 89.6235 250.855 89.8924 251.393 90.4302C251.933 90.9679 252.203 91.6139 252.203 92.3682C252.203 93.127 251.932 93.7707 251.389 94.2993C250.845 94.8302 250.187 95.0957 249.417 95.0957C248.736 95.0957 248.124 94.8599 247.582 94.3882C246.985 93.8664 246.686 93.1828 246.686 92.3374ZM247.489 92.3477C247.489 92.931 247.685 93.4106 248.077 93.7866C248.467 94.1626 248.917 94.3506 249.427 94.3506C249.981 94.3506 250.448 94.1592 250.829 93.7764C251.209 93.389 251.4 92.9173 251.4 92.3613C251.4 91.7985 251.212 91.3268 250.836 90.9463C250.462 90.5635 249.999 90.3721 249.448 90.3721C248.899 90.3721 248.435 90.5635 248.057 90.9463C247.678 91.3245 247.489 91.7917 247.489 92.3477ZM254.351 89.7227V92.9014C254.351 93.3548 254.425 93.6864 254.573 93.896C254.794 94.1991 255.105 94.3506 255.506 94.3506C255.909 94.3506 256.221 94.1991 256.442 93.896C256.59 93.6932 256.665 93.3617 256.665 92.9014V89.7227H257.461V93.1201C257.461 93.6761 257.288 94.1341 256.941 94.4941C256.552 94.8952 256.073 95.0957 255.506 95.0957C254.938 95.0957 254.461 94.8952 254.074 94.4941C253.727 94.1341 253.554 93.6761 253.554 93.1201V89.7227H254.351ZM259.079 95V89.3638L262.928 93.3901V89.7227H263.724V95.3213L259.875 91.3052V95H259.079ZM265.342 95V89.7227H266.45C266.98 89.7227 267.4 89.7751 267.707 89.8799C268.038 89.9824 268.337 90.1567 268.606 90.4028C269.151 90.8996 269.423 91.5524 269.423 92.3613C269.423 93.1725 269.139 93.8288 268.572 94.3301C268.287 94.5807 267.989 94.755 267.677 94.853C267.385 94.951 266.971 95 266.436 95H265.342ZM266.138 94.2515H266.497C266.855 94.2515 267.152 94.2139 267.389 94.1387C267.626 94.0589 267.841 93.9325 268.032 93.7593C268.424 93.4015 268.62 92.9355 268.62 92.3613C268.62 91.7826 268.426 91.3132 268.039 90.9531C267.69 90.6318 267.176 90.4712 266.497 90.4712H266.138V94.2515Z" fill="#B2B0C8"/>
<line x1="273" y1="90.25" x2="301" y2="90.25" stroke="#641956" stroke-width="1.5"/>
<line x1="273" y1="95" x2="301" y2="95" stroke="#07023C" stroke-width="2"/>
<circle cx="96.5" cy="378.5" r="47.5" fill="url(#paint0_linear_1_6)"/>
<rect x="58" y="365" width="76" height="27" rx="4" fill="#030512"/>
<rect x="109.5" y="340.5" width="76" height="27" rx="4" transform="rotate(90 109.5 340.5)" fill="#030512"/>
<g filter="url(#filter1_ii_1_6)">
<rect x="120" y="455.264" width="48.4861" height="18.9479" rx="9.47393" transform="rotate(-27.3345 120 455.264)" fill="#E6D9D0"/>
</g>
<g filter="url(#filter2_ii_1_6)">
<rect x="174" y="455.264" width="48.4861" height="18.9479" rx="9.47393" transform="rotate(-27.3345 174 455.264)" fill="#E6D9D0"/>
</g>
<rect x="128.674" y="457.204" width="34.8195" height="7.68601" rx="3.84301" transform="rotate(-27.3345 128.674 457.204)" fill="url(#paint1_linear_1_6)" stroke="black"/>
<rect x="182.674" y="457.204" width="34.8195" height="7.68601" rx="3.84301" transform="rotate(-27.3345 182.674 457.204)" fill="url(#paint2_linear_1_6)" stroke="black"/>
<rect x="211" y="371.749" width="108.772" height="50.9896" rx="25.4948" transform="rotate(-26.039 211 371.749)" fill="url(#paint3_linear_1_6)"/>
<circle cx="246" cy="384" r="17.5" fill="url(#paint4_linear_1_6)" stroke="black"/>
<circle cx="295" cy="360" r="17.5" fill="url(#paint5_linear_1_6)" stroke="black"/>
<rect x="217.74" y="483.269" width="50.8797" height="5.76337" rx="2.88168" transform="rotate(61.4433 217.74 483.269)" fill="#AC9B93" stroke="black"/>
<rect x="232.74" y="474.678" width="50.8797" height="5.76337" rx="2.88168" transform="rotate(61.4433 232.74 474.678)" fill="#AC9B93" stroke="black"/>
<rect x="247.74" y="465.678" width="50.8797" height="5.76337" rx="2.88168" transform="rotate(61.4433 247.74 465.678)" fill="#AC9B93" stroke="black"/>
<rect x="264.74" y="456.678" width="50.8797" height="5.76337" rx="2.88168" transform="rotate(61.4433 264.74 456.678)" fill="#AC9B93" stroke="black"/>
<rect x="279.74" y="447.678" width="50.8797" height="5.76337" rx="2.88168" transform="rotate(61.4433 279.74 447.678)" fill="#AC9B93" stroke="black"/>
<rect x="293.74" y="438.678" width="50.8797" height="5.76337" rx="2.88168" transform="rotate(61.4433 293.74 438.678)" fill="#AC9B93" stroke="black"/>
<path d="M61.025 287.512H61.74C62.532 287.512 62.928 287.167 62.928 286.478C62.928 285.789 62.532 285.444 61.74 285.444H61.025V287.512ZM61.025 292H58.869V283.706H62.301C63.2323 283.706 63.9437 283.948 64.435 284.432C64.9337 284.916 65.183 285.598 65.183 286.478C65.183 287.358 64.9337 288.04 64.435 288.524C63.9437 289.008 63.2323 289.25 62.301 289.25H61.025V292ZM70.1332 288.359C70.0672 288.08 69.9315 287.857 69.7262 287.688C69.5208 287.519 69.2715 287.435 68.9782 287.435C68.6702 287.435 68.4172 287.516 68.2192 287.677C68.0285 287.838 67.9075 288.066 67.8562 288.359H70.1332ZM67.8012 289.514C67.8012 290.372 68.2045 290.801 69.0112 290.801C69.4438 290.801 69.7702 290.625 69.9902 290.273H71.9152C71.5265 291.564 70.5548 292.209 69.0002 292.209C68.5235 292.209 68.0872 292.139 67.6912 292C67.2952 291.853 66.9542 291.648 66.6682 291.384C66.3895 291.12 66.1732 290.805 66.0192 290.438C65.8652 290.071 65.7882 289.661 65.7882 289.206C65.7882 288.737 65.8615 288.315 66.0082 287.941C66.1548 287.56 66.3638 287.237 66.6352 286.973C66.9065 286.709 67.2328 286.507 67.6142 286.368C68.0028 286.221 68.4392 286.148 68.9232 286.148C69.3998 286.148 69.8288 286.221 70.2102 286.368C70.5915 286.507 70.9142 286.713 71.1782 286.984C71.4422 287.255 71.6438 287.589 71.7832 287.985C71.9225 288.374 71.9922 288.814 71.9922 289.305V289.514H67.8012ZM74.9782 289.162C74.9782 289.345 75.0112 289.518 75.0772 289.679C75.1432 289.833 75.2312 289.969 75.3412 290.086C75.4586 290.203 75.5942 290.295 75.7482 290.361C75.9096 290.427 76.0819 290.46 76.2652 290.46C76.4412 290.46 76.6062 290.427 76.7602 290.361C76.9216 290.295 77.0572 290.203 77.1672 290.086C77.2846 289.969 77.3762 289.833 77.4422 289.679C77.5156 289.525 77.5522 289.36 77.5522 289.184C77.5522 289.008 77.5156 288.843 77.4422 288.689C77.3762 288.528 77.2846 288.388 77.1672 288.271C77.0572 288.154 76.9216 288.062 76.7602 287.996C76.6062 287.93 76.4412 287.897 76.2652 287.897C76.0819 287.897 75.9096 287.93 75.7482 287.996C75.5942 288.062 75.4586 288.154 75.3412 288.271C75.2312 288.388 75.1432 288.524 75.0772 288.678C75.0112 288.825 74.9782 288.986 74.9782 289.162ZM77.4862 286.357H79.4882V292H77.4862V291.373C77.0609 291.908 76.4852 292.176 75.7592 292.176C75.3486 292.176 74.9709 292.103 74.6262 291.956C74.2816 291.802 73.9809 291.589 73.7242 291.318C73.4676 291.047 73.2659 290.728 73.1192 290.361C72.9799 289.994 72.9102 289.595 72.9102 289.162C72.9102 288.759 72.9799 288.377 73.1192 288.018C73.2586 287.651 73.4529 287.332 73.7022 287.061C73.9516 286.79 74.2486 286.577 74.5932 286.423C74.9379 286.262 75.3192 286.181 75.7372 286.181C76.4412 286.181 77.0242 286.427 77.4862 286.918V286.357ZM80.8431 286.357H82.8341V287.072C83.1055 286.742 83.3805 286.522 83.6591 286.412C83.9378 286.295 84.2641 286.236 84.6381 286.236C85.0341 286.236 85.3715 286.302 85.6501 286.434C85.9361 286.559 86.1781 286.738 86.3761 286.973C86.5375 287.164 86.6475 287.376 86.7061 287.611C86.7648 287.846 86.7941 288.113 86.7941 288.414V292H84.8031V289.151C84.8031 288.872 84.7811 288.649 84.7371 288.48C84.7005 288.304 84.6308 288.165 84.5281 288.062C84.4401 287.974 84.3411 287.912 84.2311 287.875C84.1211 287.838 84.0038 287.82 83.8791 287.82C83.5418 287.82 83.2815 287.923 83.0981 288.128C82.9221 288.326 82.8341 288.612 82.8341 288.986V292H80.8431V286.357ZM90.1388 286.357V289.536C90.1388 290.233 90.4762 290.581 91.1508 290.581C91.8255 290.581 92.1628 290.233 92.1628 289.536V286.357H94.1538V289.921C94.1538 290.684 93.9008 291.256 93.3948 291.637C92.8962 292.018 92.1482 292.209 91.1508 292.209C90.1535 292.209 89.4018 292.018 88.8958 291.637C88.3972 291.256 88.1478 290.684 88.1478 289.921V286.357H90.1388ZM97.7282 288.018V292H95.7372V288.018H95.0772V286.357H95.7372V284.663H97.7282V286.357H98.8612V288.018H97.7282ZM103.834 287.358H108.113C108.113 287.798 108.094 288.198 108.058 288.557C108.021 288.916 107.948 289.25 107.838 289.558C107.684 289.991 107.475 290.376 107.211 290.713C106.947 291.043 106.635 291.322 106.276 291.549C105.924 291.769 105.535 291.938 105.11 292.055C104.684 292.172 104.237 292.231 103.768 292.231C103.122 292.231 102.532 292.125 101.997 291.912C101.469 291.699 101.014 291.402 100.633 291.021C100.251 290.632 99.9544 290.17 99.7417 289.635C99.5291 289.092 99.4227 288.495 99.4227 287.842C99.4227 287.197 99.5254 286.606 99.7307 286.071C99.9434 285.528 100.24 285.066 100.622 284.685C101.01 284.304 101.476 284.007 102.019 283.794C102.561 283.581 103.166 283.475 103.834 283.475C104.699 283.475 105.458 283.662 106.111 284.036C106.763 284.41 107.28 284.989 107.662 285.774L105.616 286.621C105.425 286.166 105.176 285.84 104.868 285.642C104.567 285.444 104.222 285.345 103.834 285.345C103.511 285.345 103.218 285.407 102.954 285.532C102.69 285.649 102.462 285.822 102.272 286.049C102.088 286.269 101.942 286.537 101.832 286.852C101.729 287.167 101.678 287.519 101.678 287.908C101.678 288.26 101.722 288.586 101.81 288.887C101.905 289.188 102.044 289.448 102.228 289.668C102.411 289.888 102.638 290.06 102.91 290.185C103.181 290.302 103.496 290.361 103.856 290.361C104.068 290.361 104.274 290.339 104.472 290.295C104.67 290.244 104.846 290.167 105 290.064C105.161 289.954 105.293 289.815 105.396 289.646C105.498 289.477 105.568 289.272 105.605 289.03H103.834V287.358ZM111.631 290.328H112.104C112.647 290.328 113.036 290.258 113.27 290.119C113.505 289.98 113.622 289.756 113.622 289.448C113.622 289.14 113.505 288.916 113.27 288.777C113.036 288.638 112.647 288.568 112.104 288.568H111.631V290.328ZM111.631 286.962H112.027C112.702 286.962 113.039 286.694 113.039 286.159C113.039 285.624 112.702 285.356 112.027 285.356H111.631V286.962ZM109.475 283.706H112.687C113.45 283.706 114.029 283.889 114.425 284.256C114.821 284.623 115.019 285.151 115.019 285.84C115.019 286.258 114.942 286.606 114.788 286.885C114.642 287.156 114.414 287.387 114.106 287.578C114.414 287.637 114.675 287.728 114.887 287.853C115.107 287.97 115.283 288.117 115.415 288.293C115.555 288.469 115.654 288.667 115.712 288.887C115.771 289.107 115.8 289.342 115.8 289.591C115.8 289.98 115.731 290.324 115.591 290.625C115.459 290.926 115.269 291.179 115.019 291.384C114.777 291.589 114.48 291.743 114.128 291.846C113.776 291.949 113.38 292 112.94 292H109.475V283.706ZM128.911 285.689H134.342C134.207 287.23 133.838 288.493 133.235 289.478C132.098 291.335 130.411 292.264 128.172 292.264C126.286 292.264 124.733 291.628 123.514 290.356C122.295 289.085 121.686 287.462 121.686 285.487C121.686 284.415 121.894 283.369 122.31 282.35C122.72 281.354 123.294 280.521 124.033 279.854C125.269 278.723 126.801 278.157 128.629 278.157C130.868 278.157 132.722 279.068 134.193 280.891L132.883 282.227C131.776 280.773 130.346 280.047 128.594 280.047C127.147 280.047 125.972 280.548 125.07 281.55C124.162 282.563 123.707 283.861 123.707 285.443C123.707 286.896 124.132 288.083 124.982 289.003C125.831 289.923 126.936 290.383 128.295 290.383C129.256 290.383 130.077 290.119 130.756 289.592C131.43 289.064 131.864 288.344 132.057 287.43H128.691L128.911 285.689ZM139.171 288.81L137.519 292H135.33L142.836 277.463L147.521 292H145.42L144.436 288.81H139.171ZM140.041 287.069H143.873L142.414 282.244L140.041 287.069ZM163.81 277.146L164.926 292H163.01L162.404 283.352L157.148 292.949L154.239 283.352L151.532 292H149.475L154.169 277.472L157.605 288.563L163.81 277.146ZM177.059 278.43L176.83 280.302H171.847L171.416 283.817H176.4L176.189 285.558H171.205L170.643 290.128H175.626L175.389 292H168.402L170.071 278.43H177.059ZM187.006 278.43H189.52C190.311 278.43 190.953 278.515 191.445 278.685C191.925 278.854 192.332 279.142 192.666 279.546C193.2 280.185 193.466 280.955 193.466 281.857C193.466 283.229 192.807 284.274 191.489 284.995C193.088 285.394 193.888 286.396 193.888 288.001C193.888 288.663 193.747 289.287 193.466 289.873C193.197 290.453 192.816 290.922 192.324 291.279C191.931 291.566 191.5 291.757 191.032 291.851C190.786 291.897 190.49 291.936 190.144 291.965C189.798 291.988 189.388 292 188.913 292H185.336L187.006 278.43ZM188.782 280.302L188.289 284.362H188.861C190.583 284.362 191.445 283.56 191.445 281.954C191.445 280.853 190.788 280.302 189.476 280.302H188.782ZM188.087 285.971L187.578 290.128H188.931C189.939 290.128 190.63 290.002 191.005 289.75C191.579 289.369 191.867 288.736 191.867 287.852C191.867 287.518 191.817 287.233 191.717 286.999C191.623 286.759 191.474 286.562 191.269 286.41C191.064 286.258 190.797 286.146 190.469 286.076C190.147 286.006 189.757 285.971 189.3 285.971H188.087ZM210.934 284.951C210.934 286.498 210.523 287.901 209.703 289.161C209.053 290.151 208.203 290.916 207.154 291.455C206.105 291.994 204.945 292.264 203.674 292.264C201.641 292.264 199.982 291.616 198.699 290.321C197.416 289.021 196.774 287.339 196.774 285.276C196.774 283.22 197.454 281.521 198.813 280.179C200.179 278.831 201.901 278.157 203.981 278.157C206.062 278.157 207.74 278.781 209.018 280.029C210.295 281.271 210.934 282.912 210.934 284.951ZM208.912 284.934C208.912 283.451 208.473 282.265 207.594 281.374C206.715 280.489 205.534 280.047 204.052 280.047C202.563 280.047 201.312 280.545 200.299 281.541C199.297 282.537 198.796 283.782 198.796 285.276C198.796 286.753 199.262 287.975 200.193 288.941C201.125 289.902 202.303 290.383 203.727 290.383C205.209 290.383 206.442 289.864 207.427 288.827C208.417 287.802 208.912 286.504 208.912 284.934ZM218.162 285.927L217.415 292H215.402L216.175 285.786L212.651 278.43H214.813L217.318 283.826L220.878 278.43H223.189L218.162 285.927Z" fill="#11056B"/>
<path d="M139.25 473.841C139.353 474.042 139.421 474.236 139.452 474.424C139.485 474.609 139.491 474.784 139.471 474.949C139.451 475.114 139.407 475.269 139.34 475.413C139.272 475.556 139.193 475.686 139.101 475.803C139.01 475.919 138.908 476.023 138.797 476.114C138.688 476.203 138.579 476.276 138.469 476.332L134.554 478.356L134.029 477.341L137.945 475.317C138.14 475.216 138.261 475.081 138.309 474.911C138.359 474.74 138.334 474.559 138.235 474.366C138.186 474.272 138.128 474.194 138.059 474.131C137.99 474.067 137.913 474.021 137.829 473.992C137.747 473.962 137.659 473.951 137.565 473.96C137.473 473.968 137.381 473.996 137.287 474.045L134.952 475.251C134.789 475.336 134.597 475.399 134.377 475.44C134.156 475.478 133.93 475.474 133.699 475.429C133.47 475.382 133.247 475.282 133.029 475.127C132.813 474.972 132.626 474.742 132.469 474.437C132.312 474.133 132.233 473.849 132.232 473.585C132.232 473.318 132.279 473.078 132.373 472.864C132.469 472.647 132.597 472.46 132.757 472.305C132.916 472.147 133.078 472.025 133.242 471.94L136.697 470.155L137.221 471.17L133.766 472.955C133.574 473.055 133.453 473.192 133.404 473.365C133.358 473.537 133.385 473.72 133.484 473.912C133.585 474.108 133.718 474.235 133.884 474.294C134.051 474.35 134.231 474.328 134.424 474.228L136.758 473.022L136.766 473.018C136.877 472.964 137.001 472.919 137.138 472.885C137.274 472.848 137.416 472.827 137.566 472.822C137.717 472.816 137.871 472.829 138.026 472.861C138.18 472.891 138.33 472.945 138.476 473.024C138.625 473.102 138.766 473.208 138.897 473.341C139.029 473.474 139.146 473.641 139.25 473.841ZM145.484 469.808L142.279 471.465L141.751 470.442L144.956 468.785L145.484 469.808ZM147.123 471.86L143.462 473.752C143.321 473.825 143.155 473.88 142.962 473.916C142.77 473.953 142.574 473.952 142.373 473.914C142.173 473.872 141.979 473.787 141.79 473.657C141.602 473.523 141.44 473.325 141.304 473.062L139.412 469.4C139.375 469.33 139.354 469.256 139.348 469.181C139.341 469.105 139.348 469.032 139.368 468.962C139.391 468.891 139.427 468.826 139.476 468.768C139.525 468.71 139.586 468.662 139.659 468.624L144.23 466.261L144.755 467.277L140.687 469.379L142.319 472.537C142.388 472.67 142.475 472.753 142.582 472.787C142.688 472.821 142.809 472.803 142.945 472.733L146.599 470.845L147.123 471.86ZM154.368 468.116L149.738 470.509C149.665 470.546 149.591 470.568 149.515 470.574C149.439 470.581 149.366 470.574 149.296 470.554C149.228 470.53 149.165 470.493 149.106 470.444C149.048 470.395 149 470.334 148.962 470.261L146.333 465.175L147.348 464.65L149.717 469.233L153.844 467.101L154.368 468.116ZM159.63 462.497L156.425 464.154L155.896 463.131L159.102 461.475L159.63 462.497ZM161.269 464.549L157.607 466.442C157.467 466.514 157.301 466.569 157.108 466.606C156.916 466.642 156.72 466.642 156.519 466.604C156.319 466.562 156.125 466.476 155.935 466.346C155.748 466.212 155.586 466.014 155.45 465.751L153.557 462.089C153.521 462.019 153.5 461.946 153.494 461.87C153.487 461.794 153.494 461.721 153.514 461.651C153.537 461.58 153.573 461.516 153.622 461.457C153.671 461.399 153.732 461.351 153.805 461.313L158.376 458.951L158.901 459.966L154.833 462.068L156.465 465.227C156.534 465.359 156.621 465.443 156.728 465.477C156.834 465.511 156.955 465.493 157.091 465.423L160.745 463.534L161.269 464.549ZM168.346 460.892L164.684 462.784C164.591 462.833 164.484 462.875 164.364 462.91C164.245 462.942 164.12 462.962 163.989 462.971C163.861 462.977 163.73 462.969 163.596 462.946C163.46 462.921 163.328 462.875 163.199 462.81C163.071 462.741 162.949 462.649 162.833 462.534C162.717 462.416 162.613 462.27 162.523 462.096L161.103 459.347C161.054 459.254 161.013 459.148 160.978 459.031C160.945 458.909 160.925 458.784 160.918 458.656C160.91 458.525 160.919 458.392 160.944 458.257C160.97 458.121 161.016 457.99 161.083 457.864C161.15 457.733 161.242 457.61 161.357 457.494C161.472 457.379 161.617 457.276 161.791 457.186L165.453 455.294L165.978 456.309L162.316 458.201C162.183 458.27 162.1 458.357 162.066 458.464C162.032 458.57 162.05 458.693 162.122 458.831L163.538 461.571C163.605 461.701 163.693 461.785 163.801 461.821C163.91 461.854 164.03 461.837 164.16 461.769L167.822 459.877L168.346 460.892ZM173.117 452.619L170.88 453.775L173.249 458.358L172.234 458.883L169.865 454.3L167.624 455.458L167.099 454.443L172.592 451.604L173.117 452.619Z" fill="#11056B"/>
<path d="M197.25 473.087C197.353 473.287 197.421 473.481 197.452 473.67C197.485 473.854 197.491 474.029 197.471 474.194C197.451 474.36 197.407 474.514 197.34 474.658C197.272 474.802 197.193 474.932 197.101 475.048C197.01 475.165 196.908 475.268 196.797 475.359C196.688 475.448 196.579 475.521 196.469 475.578L192.554 477.601L192.029 476.586L195.945 474.563C196.14 474.462 196.261 474.326 196.309 474.157C196.359 473.986 196.334 473.804 196.235 473.611C196.186 473.518 196.128 473.439 196.059 473.376C195.99 473.313 195.913 473.266 195.829 473.237C195.747 473.207 195.659 473.196 195.565 473.206C195.473 473.213 195.381 473.241 195.287 473.29L192.952 474.496C192.789 474.581 192.597 474.644 192.377 474.685C192.156 474.723 191.93 474.72 191.699 474.674C191.47 474.627 191.247 474.527 191.029 474.373C190.813 474.217 190.626 473.987 190.469 473.682C190.312 473.378 190.233 473.094 190.232 472.831C190.232 472.563 190.279 472.323 190.373 472.109C190.469 471.892 190.597 471.705 190.757 471.55C190.916 471.392 191.078 471.27 191.242 471.186L194.697 469.4L195.221 470.415L191.766 472.201C191.574 472.3 191.453 472.437 191.404 472.61C191.358 472.783 191.385 472.965 191.484 473.158C191.585 473.353 191.718 473.48 191.884 473.54C192.051 473.595 192.231 473.573 192.424 473.473L194.758 472.267L194.766 472.263C194.877 472.209 195.001 472.165 195.138 472.13C195.274 472.093 195.416 472.072 195.566 472.067C195.717 472.062 195.871 472.075 196.026 472.107C196.18 472.136 196.33 472.19 196.476 472.27C196.625 472.348 196.766 472.453 196.897 472.586C197.029 472.719 197.146 472.886 197.25 473.087ZM202.852 466.471L200.615 467.628L202.984 472.211L201.969 472.735L199.6 468.152L197.359 469.31L196.835 468.295L202.328 465.456L202.852 466.471ZM212.547 467.268L211.532 467.793L210.822 466.419L207.254 468.263L207.964 469.637L206.949 470.162L205.503 467.362C205.291 466.954 205.167 466.541 205.13 466.125C205.093 465.709 205.136 465.313 205.258 464.936C205.38 464.56 205.576 464.215 205.845 463.901C206.115 463.586 206.452 463.325 206.855 463.117L209.143 461.934C209.213 461.898 209.286 461.877 209.362 461.87C209.438 461.864 209.511 461.872 209.583 461.895C209.654 461.918 209.718 461.954 209.777 462.003C209.835 462.052 209.882 462.111 209.919 462.181L212.547 467.268ZM206.729 467.248L210.298 465.404L209.164 463.21L207.38 464.132C207.348 464.148 207.285 464.187 207.189 464.25C207.094 464.309 206.989 464.391 206.875 464.496C206.764 464.6 206.655 464.727 206.548 464.878C206.442 465.029 206.361 465.202 206.308 465.398C206.254 465.594 206.239 465.813 206.261 466.055C206.286 466.293 206.371 466.554 206.518 466.838L206.729 467.248ZM218.683 459.388C218.803 459.62 218.881 459.841 218.918 460.053C218.955 460.265 218.96 460.467 218.934 460.658C218.909 460.846 218.858 461.022 218.782 461.187C218.706 461.352 218.614 461.503 218.507 461.641C218.401 461.775 218.284 461.893 218.156 461.995C218.03 462.097 217.905 462.18 217.78 462.244L220.846 462.98L219.277 463.791L216.214 463.053L215.484 463.431L214.96 462.415L217.255 461.229C217.378 461.153 217.48 461.067 217.563 460.971C217.646 460.872 217.707 460.766 217.745 460.655C217.785 460.541 217.8 460.423 217.789 460.3C217.777 460.175 217.737 460.045 217.668 459.913L217.337 459.272C217.308 459.215 217.278 459.176 217.247 459.156C217.218 459.131 217.189 459.118 217.158 459.118C217.13 459.113 217.101 459.116 217.074 459.127C217.049 459.136 217.026 459.146 217.006 459.157L213.656 460.888L216.025 465.471L215.01 465.996L212.381 460.909C212.344 460.839 212.323 460.766 212.317 460.69C212.311 460.614 212.317 460.541 212.338 460.471C212.36 460.4 212.396 460.336 212.445 460.277C212.494 460.219 212.555 460.171 212.628 460.133L216.481 458.142C216.708 458.025 216.92 457.968 217.12 457.97C217.317 457.97 217.497 458.008 217.658 458.083C217.82 458.154 217.959 458.251 218.074 458.372C218.192 458.492 218.284 458.615 218.348 458.74L218.683 459.388ZM225.546 454.743L223.309 455.899L225.678 460.482L224.663 461.007L222.294 456.424L220.053 457.582L219.529 456.567L225.022 453.728L225.546 454.743Z" fill="#11056B"/>
<path d="M264.673 413.247C264.737 413.372 264.784 413.517 264.814 413.683C264.846 413.848 264.845 414.017 264.809 414.19C264.776 414.362 264.703 414.53 264.59 414.694C264.475 414.856 264.305 414.995 264.078 415.112L260.225 417.103C260.152 417.141 260.078 417.163 260.002 417.169C259.926 417.176 259.853 417.169 259.784 417.149C259.715 417.125 259.652 417.088 259.593 417.039C259.535 416.99 259.487 416.929 259.449 416.856L257.085 412.281C257.048 412.21 257.027 412.137 257.021 412.061C257.015 411.986 257.022 411.913 257.042 411.843C257.064 411.772 257.1 411.707 257.149 411.649C257.198 411.591 257.259 411.543 257.332 411.505L260.728 409.75C260.853 409.685 260.999 409.638 261.165 409.608C261.331 409.579 261.501 409.582 261.674 409.617C261.849 409.649 262.017 409.722 262.178 409.837C262.342 409.95 262.483 410.119 262.6 410.346L262.698 410.537C262.791 410.717 262.862 410.926 262.909 411.165C262.956 411.402 262.96 411.647 262.923 411.9C263.074 411.911 263.224 411.941 263.374 411.988C263.527 412.035 263.675 412.104 263.817 412.195C263.96 412.286 264.096 412.402 264.225 412.543C264.354 412.684 264.47 412.854 264.572 413.052L264.673 413.247ZM263.557 413.576C263.488 413.443 263.406 413.336 263.311 413.253C263.214 413.168 263.108 413.107 262.994 413.071C262.879 413.034 262.759 413.024 262.632 413.04C262.503 413.054 262.373 413.095 262.24 413.163L259.952 414.346L259.424 413.323L261.255 412.376C261.388 412.308 261.497 412.226 261.584 412.132C261.669 412.035 261.73 411.93 261.766 411.815C261.803 411.701 261.814 411.581 261.799 411.457C261.785 411.329 261.744 411.198 261.676 411.066L261.577 410.874C261.501 410.729 261.394 410.692 261.253 410.765L258.36 412.26L260.204 415.828L263.554 414.097C263.572 414.088 263.593 414.075 263.618 414.059C263.643 414.043 263.662 414.023 263.676 413.999C263.69 413.975 263.697 413.944 263.697 413.904C263.696 413.865 263.682 413.818 263.654 413.763L263.557 413.576Z" fill="#11056B"/>
<path d="M313.214 389.525L312.199 390.049L311.489 388.675L307.921 390.519L308.631 391.894L307.616 392.418L306.17 389.619C305.958 389.21 305.834 388.798 305.797 388.382C305.76 387.966 305.803 387.569 305.925 387.193C306.047 386.817 306.243 386.471 306.512 386.157C306.782 385.843 307.119 385.582 307.522 385.373L309.81 384.191C309.88 384.155 309.953 384.133 310.029 384.127C310.105 384.121 310.178 384.129 310.25 384.152C310.321 384.174 310.385 384.21 310.444 384.259C310.502 384.308 310.549 384.368 310.586 384.438L313.214 389.525ZM307.396 389.504L310.965 387.66L309.831 385.466L308.047 386.388C308.015 386.404 307.952 386.444 307.856 386.507C307.761 386.566 307.656 386.648 307.542 386.753C307.431 386.856 307.322 386.984 307.215 387.134C307.109 387.285 307.028 387.459 306.975 387.655C306.921 387.85 306.906 388.07 306.928 388.312C306.953 388.55 307.038 388.811 307.185 389.094L307.396 389.504Z" fill="#11056B"/>
<defs>
<filter id="filter0_d_1_6" x="31" y="42" width="334" height="536" filterUnits="userSpaceOnUse" color-interpolation-filters="sRGB">
<feFlood flood-opacity="0" result="BackgroundImageFix"/>
<feColorMatrix in="SourceAlpha" type="matrix" values="0 0 0 0 0 0 0 0 0 0 0 0 0 0 0 0 0 0 127 0" result="hardAlpha"/>
<feOffset dx="14" dy="18"/>
<feGaussianBlur stdDeviation="9"/>
<feComposite in2="hardAlpha" operator="out"/>
<feColorMatrix type="matrix" values="0 0 0 0 0 0 0 0 0 0 0 0 0 0 0 0 0 0 0.25 0"/>
<feBlend mode="normal" in2="BackgroundImageFix" result="effect1_dropShadow_1_6"/>
<feBlend mode="normal" in="SourceGraphic" in2="effect1_dropShadow_1_6" result="shape"/>
</filter>
<filter id="filter1_ii_1_6" x="123.29" y="434.29" width="45.1918" height="37.5153" filterUnits="userSpaceOnUse" color-interpolation-filters="sRGB">
<feFlood flood-opacity="0" result="BackgroundImageFix"/>
<feBlend mode="normal" in="SourceGraphic" in2="BackgroundImageFix" result="shape"/>
<feColorMatrix in="SourceAlpha" type="matrix" values="0 0 0 0 0 0 0 0 0 0 0 0 0 0 0 0 0 0 127 0" result="hardAlpha"/>
<feOffset dy="3"/>
<feGaussianBlur stdDeviation="2.7"/>
<feComposite in2="hardAlpha" operator="arithmetic" k2="-1" k3="1"/>
<feColorMatrix type="matrix" values="0 0 0 0 0 0 0 0 0 0 0 0 0 0 0 0 0 0 0.47 0"/>
<feBlend mode="normal" in2="shape" result="effect1_innerShadow_1_6"/>
<feColorMatrix in="SourceAlpha" type="matrix" values="0 0 0 0 0 0 0 0 0 0 0 0 0 0 0 0 0 0 127 0" result="hardAlpha"/>
<feOffset dy="-2"/>
<feGaussianBlur stdDeviation="1"/>
<feComposite in2="hardAlpha" operator="arithmetic" k2="-1" k3="1"/>
<feColorMatrix type="matrix" values="0 0 0 0 1 0 0 0 0 1 0 0 0 0 1 0 0 0 0.43 0"/>
<feBlend mode="normal" in2="effect1_innerShadow_1_6" result="effect2_innerShadow_1_6"/>
</filter>
<filter id="filter2_ii_1_6" x="177.29" y="434.29" width="45.1918" height="37.5153" filterUnits="userSpaceOnUse" color-interpolation-filters="sRGB">
<feFlood flood-opacity="0" result="BackgroundImageFix"/>
<feBlend mode="normal" in="SourceGraphic" in2="BackgroundImageFix" result="shape"/>
<feColorMatrix in="SourceAlpha" type="matrix" values="0 0 0 0 0 0 0 0 0 0 0 0 0 0 0 0 0 0 127 0" result="hardAlpha"/>
<feOffset dy="3"/>
<feGaussianBlur stdDeviation="2.7"/>
<feComposite in2="hardAlpha" operator="arithmetic" k2="-1" k3="1"/>
<feColorMatrix type="matrix" values="0 0 0 0 0 0 0 0 0 0 0 0 0 0 0 0 0 0 0.47 0"/>
<feBlend mode="normal" in2="shape" result="effect1_innerShadow_1_6"/>
<feColorMatrix in="SourceAlpha" type="matrix" values="0 0 0 0 0 0 0 0 0 0 0 0 0 0 0 0 0 0 127 0" result="hardAlpha"/>
<feOffset dy="-2"/>
<feGaussianBlur stdDeviation="1"/>
<feComposite in2="hardAlpha" operator="arithmetic" k2="-1" k3="1"/>
<feColorMatrix type="matrix" values="0 0 0 0 1 0 0 0 0 1 0 0 0 0 1 0 0 0 0.43 0"/>
<feBlend mode="normal" in2="effect1_innerShadow_1_6" result="effect2_innerShadow_1_6"/>
</filter>
<linearGradient id="paint0_linear_1_6" x1="96.5" y1="331" x2="96.5" y2="426" gradientUnits="userSpaceOnUse">
<stop stop-color="#DED0C7"/>
<stop offset="1" stop-color="#EDE3D9"/>
</linearGradient>
<linearGradient id="paint1_linear_1_6" x1="144.313" y1="456.99" x2="144.874" y2="465.723" gradientUnits="userSpaceOnUse">
<stop stop-color="#93979A"/>
<stop offset="1" stop-color="#585659"/>
</linearGradient>
<linearGradient id="paint2_linear_1_6" x1="198.313" y1="456.99" x2="198.644" y2="466.168" gradientUnits="userSpaceOnUse">
<stop stop-color="#93979A"/>
<stop offset="1" stop-color="#585659"/>
</linearGradient>
<linearGradient id="paint3_linear_1_6" x1="251.388" y1="374.51" x2="253.605" y2="421.225" gradientUnits="userSpaceOnUse">
<stop stop-color="#D0C1B9"/>
<stop offset="1" stop-color="#FBF7EC"/>
</linearGradient>
<linearGradient id="paint4_linear_1_6" x1="246" y1="366" x2="246" y2="402" gradientUnits="userSpaceOnUse">
<stop stop-color="#B9156E"/>
<stop offset="1" stop-color="#8F0048"/>
</linearGradient>
<linearGradient id="paint5_linear_1_6" x1="295" y1="342" x2="295" y2="378" gradientUnits="userSpaceOnUse">
<stop stop-color="#B9156E"/>
<stop offset="1" stop-color="#8F0048"/>
</linearGradient>
</defs>
</svg>
