<svg width="298" height="500" viewBox="0 0 298 500" fill="none" xmlns="http://www.w3.org/2000/svg">
<path d="M12 0.5H286C292.351 0.5 297.5 5.64873 297.5 12V422C297.5 464.802 262.802 499.5 220 499.5H12C5.64873 499.5 0.5 494.351 0.5 488V12C0.5 5.64872 5.64873 0.5 12 0.5Z" fill="#E6D9D0" stroke="black"/>
<path d="M35 39.5H266C272.351 39.5 277.5 44.6487 277.5 51V191C277.5 212.815 259.815 230.5 238 230.5H35C28.6487 230.5 23.5 225.351 23.5 219V51C23.5 44.6487 28.6487 39.5 35 39.5Z" fill="#6A6581" stroke="black"/>
<path d="M297.5 27.5H0.5V21.5H22.5V0.5H27V21.5H272.5V0.5H277V21.5H297.5V27.5Z" stroke="black"/>
<line x1="35" y1="48.25" x2="103" y2="48.25" stroke="#641956" stroke-width="1.5"/>
<line x1="35" y1="53" x2="103" y2="53" stroke="#07023C" stroke-width="2"/>
<path d="M108.632 53V47.7227H109.74C110.271 47.7227 110.69 47.7751 110.998 47.8799C111.328 47.9824 111.628 48.1567 111.896 48.4028C112.441 48.8996 112.713 49.5524 112.713 50.3613C112.713 51.1725 112.43 51.8288 111.862 52.3301C111.577 52.5807 111.279 52.755 110.967 52.853C110.675 52.951 110.262 53 109.726 53H108.632ZM109.429 52.2515H109.788C110.145 52.2515 110.443 52.2139 110.68 52.1387C110.917 52.0589 111.131 51.9325 111.322 51.7593C111.714 51.4015 111.91 50.9355 111.91 50.3613C111.91 49.7826 111.716 49.3132 111.329 48.9531C110.98 48.6318 110.467 48.4712 109.788 48.4712H109.429V52.2515ZM113.805 50.3374C113.805 49.5946 114.077 48.9565 114.622 48.4233C115.164 47.8901 115.816 47.6235 116.577 47.6235C117.329 47.6235 117.974 47.8924 118.512 48.4302C119.052 48.9679 119.322 49.6139 119.322 50.3682C119.322 51.127 119.051 51.7707 118.508 52.2993C117.964 52.8302 117.306 53.0957 116.536 53.0957C115.855 53.0957 115.243 52.8599 114.701 52.3882C114.104 51.8664 113.805 51.1828 113.805 50.3374ZM114.608 50.3477C114.608 50.931 114.804 51.4106 115.196 51.7866C115.586 52.1626 116.036 52.3506 116.546 52.3506C117.1 52.3506 117.567 52.1592 117.948 51.7764C118.328 51.389 118.518 50.9173 118.518 50.3613C118.518 49.7985 118.33 49.3268 117.954 48.9463C117.581 48.5635 117.118 48.3721 116.567 48.3721C116.018 48.3721 115.554 48.5635 115.176 48.9463C114.797 49.3245 114.608 49.7917 114.608 50.3477ZM121.938 48.4712V53H121.141V48.4712H119.928V47.7227H123.148V48.4712H121.938ZM126.534 53L127.645 47.3262L129.457 51.4277L131.333 47.3262L132.331 53H131.514L131.005 49.8145L129.443 53.2427L127.925 49.811L127.358 53H126.534ZM136.902 51.7183H134.643L134.055 53H133.197L135.809 47.3911L138.328 53H137.456L136.902 51.7183ZM136.578 50.9697L135.795 49.1753L134.975 50.9697H136.578ZM140.503 48.4712V53H139.706V48.4712H138.493V47.7227H141.713V48.4712H140.503ZM144.561 50.751L146.195 53H145.221L143.714 50.8398H143.57V53H142.774V47.7227H143.707C144.404 47.7227 144.908 47.8537 145.218 48.1157C145.559 48.4074 145.73 48.7925 145.73 49.271C145.73 49.6447 145.623 49.966 145.409 50.2349C145.195 50.5037 144.912 50.6758 144.561 50.751ZM143.57 50.146H143.823C144.577 50.146 144.954 49.8577 144.954 49.2812C144.954 48.7412 144.588 48.4712 143.854 48.4712H143.57V50.146ZM148.138 47.7227V53H147.342V47.7227H148.138ZM150.86 50.2417L149.407 47.7227H150.313L151.321 49.5103L152.381 47.7227H153.294L151.773 50.2417L153.369 53H152.477L151.308 50.98L150.105 53H149.202L150.86 50.2417ZM157.203 47.7227L158.577 51.25L160.013 47.4663L161.387 51.25L162.846 47.7227H163.711L161.352 53.335L159.996 49.5957L158.58 53.3384L156.338 47.7227H157.203ZM165.513 47.7227V53H164.717V47.7227H165.513ZM168.588 48.4712V53H167.791V48.4712H166.578V47.7227H169.798V48.4712H168.588ZM171.655 49.7871H173.931V47.7227H174.728V53H173.931V50.5356H171.655V53H170.858V47.7227H171.655V49.7871ZM181.836 48.5088L181.19 48.8916C181.07 48.682 180.954 48.5452 180.845 48.4814C180.731 48.4085 180.584 48.3721 180.404 48.3721C180.183 48.3721 180 48.4347 179.854 48.5601C179.708 48.6831 179.635 48.8381 179.635 49.0249C179.635 49.2824 179.827 49.4897 180.209 49.647L180.736 49.8623C181.164 50.0355 181.477 50.2474 181.676 50.498C181.874 50.7464 181.973 51.0518 181.973 51.4141C181.973 51.8994 181.811 52.3005 181.488 52.6172C181.162 52.9362 180.757 53.0957 180.274 53.0957C179.816 53.0957 179.438 52.9601 179.14 52.689C178.846 52.4178 178.662 52.0361 178.589 51.5439L179.396 51.3662C179.432 51.6761 179.496 51.8903 179.587 52.0088C179.751 52.2367 179.991 52.3506 180.305 52.3506C180.553 52.3506 180.76 52.2674 180.924 52.1011C181.088 51.9347 181.17 51.724 181.17 51.4688C181.17 51.3662 181.155 51.2728 181.125 51.1885C181.098 51.1019 181.054 51.0233 180.992 50.9526C180.933 50.8797 180.855 50.8125 180.76 50.751C180.664 50.6872 180.55 50.6268 180.418 50.5698L179.909 50.3579C179.186 50.0526 178.825 49.606 178.825 49.0181C178.825 48.6216 178.977 48.29 179.28 48.0234C179.583 47.7546 179.96 47.6201 180.411 47.6201C181.019 47.6201 181.495 47.9163 181.836 48.5088ZM184.842 48.4712V53H184.046V48.4712H182.832V47.7227H186.052V48.4712H184.842ZM190.025 48.4712H187.909V49.7393H189.964V50.4878H187.909V52.2515H190.025V53H187.113V47.7227H190.025V48.4712ZM193.209 50.751L194.842 53H193.868L192.361 50.8398H192.217V53H191.421V47.7227H192.354C193.051 47.7227 193.555 47.8537 193.865 48.1157C194.207 48.4074 194.378 48.7925 194.378 49.271C194.378 49.6447 194.27 49.966 194.056 50.2349C193.842 50.5037 193.56 50.6758 193.209 50.751ZM192.217 50.146H192.47C193.225 50.146 193.602 49.8577 193.602 49.2812C193.602 48.7412 193.235 48.4712 192.501 48.4712H192.217V50.146ZM196.785 47.7227V53H195.989V47.7227H196.785ZM198.14 50.3374C198.14 49.5946 198.412 48.9565 198.957 48.4233C199.499 47.8901 200.151 47.6235 200.912 47.6235C201.664 47.6235 202.309 47.8924 202.847 48.4302C203.387 48.9679 203.657 49.6139 203.657 50.3682C203.657 51.127 203.385 51.7707 202.843 52.2993C202.299 52.8302 201.641 53.0957 200.871 53.0957C200.19 53.0957 199.578 52.8599 199.036 52.3882C198.439 51.8664 198.14 51.1828 198.14 50.3374ZM198.943 50.3477C198.943 50.931 199.139 51.4106 199.531 51.7866C199.921 52.1626 200.371 52.3506 200.881 52.3506C201.435 52.3506 201.902 52.1592 202.283 51.7764C202.663 51.389 202.853 50.9173 202.853 50.3613C202.853 49.7985 202.665 49.3268 202.289 48.9463C201.916 48.5635 201.453 48.3721 200.902 48.3721C200.353 48.3721 199.889 48.5635 199.511 48.9463C199.132 49.3245 198.943 49.7917 198.943 50.3477ZM210.502 48.5088L209.856 48.8916C209.735 48.682 209.62 48.5452 209.511 48.4814C209.397 48.4085 209.25 48.3721 209.07 48.3721C208.849 48.3721 208.666 48.4347 208.52 48.5601C208.374 48.6831 208.301 48.8381 208.301 49.0249C208.301 49.2824 208.492 49.4897 208.875 49.647L209.402 49.8623C209.83 50.0355 210.143 50.2474 210.342 50.498C210.54 50.7464 210.639 51.0518 210.639 51.4141C210.639 51.8994 210.477 52.3005 210.154 52.6172C209.828 52.9362 209.423 53.0957 208.94 53.0957C208.482 53.0957 208.104 52.9601 207.805 52.689C207.511 52.4178 207.328 52.0361 207.255 51.5439L208.062 51.3662C208.098 51.6761 208.162 51.8903 208.253 52.0088C208.417 52.2367 208.656 52.3506 208.971 52.3506C209.219 52.3506 209.425 52.2674 209.59 52.1011C209.754 51.9347 209.836 51.724 209.836 51.4688C209.836 51.3662 209.821 51.2728 209.791 51.1885C209.764 51.1019 209.719 51.0233 209.658 50.9526C209.599 50.8797 209.521 50.8125 209.425 50.751C209.33 50.6872 209.216 50.6268 209.084 50.5698L208.574 50.3579C207.852 50.0526 207.491 49.606 207.491 49.0181C207.491 48.6216 207.642 48.29 207.946 48.0234C208.249 47.7546 208.626 47.6201 209.077 47.6201C209.685 47.6201 210.16 47.9163 210.502 48.5088ZM211.686 50.3374C211.686 49.5946 211.958 48.9565 212.503 48.4233C213.045 47.8901 213.697 47.6235 214.458 47.6235C215.21 47.6235 215.855 47.8924 216.393 48.4302C216.933 48.9679 217.203 49.6139 217.203 50.3682C217.203 51.127 216.932 51.7707 216.389 52.2993C215.845 52.8302 215.187 53.0957 214.417 53.0957C213.736 53.0957 213.124 52.8599 212.582 52.3882C211.985 51.8664 211.686 51.1828 211.686 50.3374ZM212.489 50.3477C212.489 50.931 212.685 51.4106 213.077 51.7866C213.467 52.1626 213.917 52.3506 214.427 52.3506C214.981 52.3506 215.448 52.1592 215.829 51.7764C216.209 51.389 216.4 50.9173 216.4 50.3613C216.4 49.7985 216.212 49.3268 215.836 48.9463C215.462 48.5635 214.999 48.3721 214.448 48.3721C213.899 48.3721 213.435 48.5635 213.057 48.9463C212.678 49.3245 212.489 49.7917 212.489 50.3477ZM219.351 47.7227V50.9014C219.351 51.3548 219.425 51.6864 219.573 51.896C219.794 52.1991 220.105 52.3506 220.506 52.3506C220.909 52.3506 221.221 52.1991 221.442 51.896C221.59 51.6932 221.665 51.3617 221.665 50.9014V47.7227H222.461V51.1201C222.461 51.6761 222.288 52.1341 221.941 52.4941C221.552 52.8952 221.073 53.0957 220.506 53.0957C219.938 53.0957 219.461 52.8952 219.074 52.4941C218.727 52.1341 218.554 51.6761 218.554 51.1201V47.7227H219.351ZM224.079 53V47.3638L227.928 51.3901V47.7227H228.724V53.3213L224.875 49.3052V53H224.079ZM230.342 53V47.7227H231.45C231.98 47.7227 232.4 47.7751 232.707 47.8799C233.038 47.9824 233.337 48.1567 233.606 48.4028C234.151 48.8996 234.423 49.5524 234.423 50.3613C234.423 51.1725 234.139 51.8288 233.572 52.3301C233.287 52.5807 232.989 52.755 232.677 52.853C232.385 52.951 231.971 53 231.436 53H230.342ZM231.138 52.2515H231.497C231.855 52.2515 232.152 52.2139 232.389 52.1387C232.626 52.0589 232.841 51.9325 233.032 51.7593C233.424 51.4015 233.62 50.9355 233.62 50.3613C233.62 49.7826 233.426 49.3132 233.039 48.9531C232.69 48.6318 232.176 48.4712 231.497 48.4712H231.138V52.2515Z" fill="#B2B0C8"/>
<line x1="238" y1="48.25" x2="266" y2="48.25" stroke="#641956" stroke-width="1.5"/>
<line x1="238" y1="53" x2="266" y2="53" stroke="#07023C" stroke-width="2"/>
<circle cx="61.5" cy="336.5" r="47.5" fill="url(#paint0_linear_1_6)"/>
<rect x="23" y="323" width="76" height="27" rx="4" fill="#030512"/>
<rect x="74.5" y="298.5" width="76" height="27" rx="4" transform="rotate(90 74.5 298.5)" fill="#030512"/>
<g filter="url(#filter0_ii_1_6)">
<rect x="85" y="413.264" width="48.4861" height="18.9479" rx="9.47393" transform="rotate(-27.3345 85 413.264)" fill="#E6D9D0"/>
</g>
<g filter="url(#filter1_ii_1_6)">
<rect x="139" y="413.264" width="48.4861" height="18.9479" rx="9.47393" transform="rotate(-27.3345 139 413.264)" fill="#E6D9D0"/>
</g>
<rect x="93.6738" y="415.204" width="34.8195" height="7.68601" rx="3.84301" transform="rotate(-27.3345 93.6738 415.204)" fill="url(#paint1_linear_1_6)" stroke="black"/>
<rect x="147.674" y="415.204" width="34.8195" height="7.68601" rx="3.84301" transform="rotate(-27.3345 147.674 415.204)" fill="url(#paint2_linear_1_6)" stroke="black"/>
<rect x="176" y="329.749" width="108.772" height="50.9896" rx="25.4948" transform="rotate(-26.039 176 329.749)" fill="url(#paint3_linear_1_6)"/>
<circle cx="211" cy="342" r="17.5" fill="url(#paint4_linear_1_6)" stroke="black"/>
<circle cx="260" cy="318" r="17.5" fill="url(#paint5_linear_1_6)" stroke="black"/>
<rect x="182.74" y="441.269" width="50.8797" height="5.76337" rx="2.88168" transform="rotate(61.4433 182.74 441.269)" fill="#AC9B93" stroke="black"/>
<rect x="197.74" y="432.678" width="50.8797" height="5.76337" rx="2.88168" transform="rotate(61.4433 197.74 432.678)" fill="#AC9B93" stroke="black"/>
<rect x="212.74" y="423.678" width="50.8797" height="5.76337" rx="2.88168" transform="rotate(61.4433 212.74 423.678)" fill="#AC9B93" stroke="black"/>
<rect x="229.74" y="414.678" width="50.8797" height="5.76337" rx="2.88168" transform="rotate(61.4433 229.74 414.678)" fill="#AC9B93" stroke="black"/>
<rect x="244.74" y="405.678" width="50.8797" height="5.76337" rx="2.88168" transform="rotate(61.4433 244.74 405.678)" fill="#AC9B93" stroke="black"/>
<rect x="258.74" y="396.678" width="50.8797" height="5.76337" rx="2.88168" transform="rotate(61.4433 258.74 396.678)" fill="#AC9B93" stroke="black"/>
<path d="M26.025 245.512H26.74C27.532 245.512 27.928 245.167 27.928 244.478C27.928 243.789 27.532 243.444 26.74 243.444H26.025V245.512ZM26.025 250H23.869V241.706H27.301C28.2323 241.706 28.9437 241.948 29.435 242.432C29.9337 242.916 30.183 243.598 30.183 244.478C30.183 245.358 29.9337 246.04 29.435 246.524C28.9437 247.008 28.2323 247.25 27.301 247.25H26.025V250ZM35.1332 246.359C35.0672 246.08 34.9315 245.857 34.7262 245.688C34.5208 245.519 34.2715 245.435 33.9782 245.435C33.6702 245.435 33.4172 245.516 33.2192 245.677C33.0285 245.838 32.9075 246.066 32.8562 246.359H35.1332ZM32.8012 247.514C32.8012 248.372 33.2045 248.801 34.0112 248.801C34.4438 248.801 34.7702 248.625 34.9902 248.273H36.9152C36.5265 249.564 35.5548 250.209 34.0002 250.209C33.5235 250.209 33.0872 250.139 32.6912 250C32.2952 249.853 31.9542 249.648 31.6682 249.384C31.3895 249.12 31.1732 248.805 31.0192 248.438C30.8652 248.071 30.7882 247.661 30.7882 247.206C30.7882 246.737 30.8615 246.315 31.0082 245.941C31.1548 245.56 31.3638 245.237 31.6352 244.973C31.9065 244.709 32.2328 244.507 32.6142 244.368C33.0028 244.221 33.4392 244.148 33.9232 244.148C34.3998 244.148 34.8288 244.221 35.2102 244.368C35.5915 244.507 35.9142 244.713 36.1782 244.984C36.4422 245.255 36.6438 245.589 36.7832 245.985C36.9225 246.374 36.9922 246.814 36.9922 247.305V247.514H32.8012ZM39.9782 247.162C39.9782 247.345 40.0112 247.518 40.0772 247.679C40.1432 247.833 40.2312 247.969 40.3412 248.086C40.4586 248.203 40.5942 248.295 40.7482 248.361C40.9096 248.427 41.0819 248.46 41.2652 248.46C41.4412 248.46 41.6062 248.427 41.7602 248.361C41.9216 248.295 42.0572 248.203 42.1672 248.086C42.2846 247.969 42.3762 247.833 42.4422 247.679C42.5156 247.525 42.5522 247.36 42.5522 247.184C42.5522 247.008 42.5156 246.843 42.4422 246.689C42.3762 246.528 42.2846 246.388 42.1672 246.271C42.0572 246.154 41.9216 246.062 41.7602 245.996C41.6062 245.93 41.4412 245.897 41.2652 245.897C41.0819 245.897 40.9096 245.93 40.7482 245.996C40.5942 246.062 40.4586 246.154 40.3412 246.271C40.2312 246.388 40.1432 246.524 40.0772 246.678C40.0112 246.825 39.9782 246.986 39.9782 247.162ZM42.4862 244.357H44.4882V250H42.4862V249.373C42.0609 249.908 41.4852 250.176 40.7592 250.176C40.3486 250.176 39.9709 250.103 39.6262 249.956C39.2816 249.802 38.9809 249.589 38.7242 249.318C38.4676 249.047 38.2659 248.728 38.1192 248.361C37.9799 247.994 37.9102 247.595 37.9102 247.162C37.9102 246.759 37.9799 246.377 38.1192 246.018C38.2586 245.651 38.4529 245.332 38.7022 245.061C38.9516 244.79 39.2486 244.577 39.5932 244.423C39.9379 244.262 40.3192 244.181 40.7372 244.181C41.4412 244.181 42.0242 244.427 42.4862 244.918V244.357ZM45.8431 244.357H47.8341V245.072C48.1055 244.742 48.3805 244.522 48.6591 244.412C48.9378 244.295 49.2641 244.236 49.6381 244.236C50.0341 244.236 50.3715 244.302 50.6501 244.434C50.9361 244.559 51.1781 244.738 51.3761 244.973C51.5375 245.164 51.6475 245.376 51.7061 245.611C51.7648 245.846 51.7941 246.113 51.7941 246.414V250H49.8031V247.151C49.8031 246.872 49.7811 246.649 49.7371 246.48C49.7005 246.304 49.6308 246.165 49.5281 246.062C49.4401 245.974 49.3411 245.912 49.2311 245.875C49.1211 245.838 49.0038 245.82 48.8791 245.82C48.5418 245.82 48.2815 245.923 48.0981 246.128C47.9221 246.326 47.8341 246.612 47.8341 246.986V250H45.8431V244.357ZM55.1388 244.357V247.536C55.1388 248.233 55.4762 248.581 56.1508 248.581C56.8255 248.581 57.1628 248.233 57.1628 247.536V244.357H59.1538V247.921C59.1538 248.684 58.9008 249.256 58.3948 249.637C57.8962 250.018 57.1482 250.209 56.1508 250.209C55.1535 250.209 54.4018 250.018 53.8958 249.637C53.3972 249.256 53.1478 248.684 53.1478 247.921V244.357H55.1388ZM62.7282 246.018V250H60.7372V246.018H60.0772V244.357H60.7372V242.663H62.7282V244.357H63.8612V246.018H62.7282ZM68.8337 245.358H73.1127C73.1127 245.798 73.0944 246.198 73.0577 246.557C73.0211 246.916 72.9477 247.25 72.8377 247.558C72.6837 247.991 72.4747 248.376 72.2107 248.713C71.9467 249.043 71.6351 249.322 71.2757 249.549C70.9237 249.769 70.5351 249.938 70.1097 250.055C69.6844 250.172 69.2371 250.231 68.7677 250.231C68.1224 250.231 67.5321 250.125 66.9967 249.912C66.4687 249.699 66.0141 249.402 65.6327 249.021C65.2514 248.632 64.9544 248.17 64.7417 247.635C64.5291 247.092 64.4227 246.495 64.4227 245.842C64.4227 245.197 64.5254 244.606 64.7307 244.071C64.9434 243.528 65.2404 243.066 65.6217 242.685C66.0104 242.304 66.4761 242.007 67.0187 241.794C67.5614 241.581 68.1664 241.475 68.8337 241.475C69.6991 241.475 70.4581 241.662 71.1107 242.036C71.7634 242.41 72.2804 242.989 72.6617 243.774L70.6157 244.621C70.4251 244.166 70.1757 243.84 69.8677 243.642C69.5671 243.444 69.2224 243.345 68.8337 243.345C68.5111 243.345 68.2177 243.407 67.9537 243.532C67.6897 243.649 67.4624 243.822 67.2717 244.049C67.0884 244.269 66.9417 244.537 66.8317 244.852C66.7291 245.167 66.6777 245.519 66.6777 245.908C66.6777 246.26 66.7217 246.586 66.8097 246.887C66.9051 247.188 67.0444 247.448 67.2277 247.668C67.4111 247.888 67.6384 248.06 67.9097 248.185C68.1811 248.302 68.4964 248.361 68.8557 248.361C69.0684 248.361 69.2737 248.339 69.4717 248.295C69.6697 248.244 69.8457 248.167 69.9997 248.064C70.1611 247.954 70.2931 247.815 70.3957 247.646C70.4984 247.477 70.5681 247.272 70.6047 247.03H68.8337V245.358ZM76.6314 248.328H77.1044C77.6471 248.328 78.0358 248.258 78.2704 248.119C78.5051 247.98 78.6224 247.756 78.6224 247.448C78.6224 247.14 78.5051 246.916 78.2704 246.777C78.0358 246.638 77.6471 246.568 77.1044 246.568H76.6314V248.328ZM76.6314 244.962H77.0274C77.7021 244.962 78.0394 244.694 78.0394 244.159C78.0394 243.624 77.7021 243.356 77.0274 243.356H76.6314V244.962ZM74.4754 241.706H77.6874C78.4501 241.706 79.0294 241.889 79.4254 242.256C79.8214 242.623 80.0194 243.151 80.0194 243.84C80.0194 244.258 79.9424 244.606 79.7884 244.885C79.6418 245.156 79.4144 245.387 79.1064 245.578C79.4144 245.637 79.6748 245.728 79.8874 245.853C80.1074 245.97 80.2834 246.117 80.4154 246.293C80.5548 246.469 80.6538 246.667 80.7124 246.887C80.7711 247.107 80.8004 247.342 80.8004 247.591C80.8004 247.98 80.7308 248.324 80.5914 248.625C80.4594 248.926 80.2688 249.179 80.0194 249.384C79.7774 249.589 79.4804 249.743 79.1284 249.846C78.7764 249.949 78.3804 250 77.9404 250H74.4754V241.706ZM93.9105 243.689H99.3422C99.2074 245.23 98.8383 246.493 98.2348 247.478C97.098 249.335 95.4105 250.264 93.1723 250.264C91.2855 250.264 89.7328 249.628 88.5141 248.356C87.2953 247.085 86.6859 245.462 86.6859 243.487C86.6859 242.415 86.8939 241.369 87.31 240.35C87.7201 239.354 88.2943 238.521 89.0326 237.854C90.2689 236.723 91.8012 236.157 93.6293 236.157C95.8676 236.157 97.7221 237.068 99.1928 238.891L97.8832 240.227C96.7758 238.773 95.3461 238.047 93.5941 238.047C92.1469 238.047 90.9721 238.548 90.0697 239.55C89.1615 240.563 88.7074 241.861 88.7074 243.443C88.7074 244.896 89.1322 246.083 89.9818 247.003C90.8314 247.923 91.9359 248.383 93.2953 248.383C94.2562 248.383 95.0766 248.119 95.7562 247.592C96.4301 247.064 96.8637 246.344 97.057 245.43H93.6908L93.9105 243.689ZM104.171 246.81L102.519 250H100.33L107.836 235.463L112.521 250H110.42L109.436 246.81H104.171ZM105.041 245.069H108.873L107.414 240.244L105.041 245.069ZM128.81 235.146L129.926 250H128.01L127.404 241.352L122.148 250.949L119.239 241.352L116.532 250H114.475L119.169 235.472L122.605 246.563L128.81 235.146ZM142.059 236.43L141.83 238.302H136.847L136.416 241.817H141.4L141.189 243.558H136.205L135.643 248.128H140.626L140.389 250H133.402L135.071 236.43H142.059ZM152.006 236.43H154.52C155.311 236.43 155.953 236.515 156.445 236.685C156.925 236.854 157.332 237.142 157.666 237.546C158.2 238.185 158.466 238.955 158.466 239.857C158.466 241.229 157.807 242.274 156.489 242.995C158.088 243.394 158.888 244.396 158.888 246.001C158.888 246.663 158.747 247.287 158.466 247.873C158.197 248.453 157.816 248.922 157.324 249.279C156.931 249.566 156.5 249.757 156.032 249.851C155.786 249.897 155.49 249.936 155.144 249.965C154.798 249.988 154.388 250 153.913 250H150.336L152.006 236.43ZM153.782 238.302L153.289 242.362H153.861C155.583 242.362 156.445 241.56 156.445 239.954C156.445 238.853 155.788 238.302 154.476 238.302H153.782ZM153.087 243.971L152.578 248.128H153.931C154.939 248.128 155.63 248.002 156.005 247.75C156.579 247.369 156.867 246.736 156.867 245.852C156.867 245.518 156.817 245.233 156.717 244.999C156.623 244.759 156.474 244.562 156.269 244.41C156.064 244.258 155.797 244.146 155.469 244.076C155.147 244.006 154.757 243.971 154.3 243.971H153.087ZM175.934 242.951C175.934 244.498 175.523 245.901 174.703 247.161C174.053 248.151 173.203 248.916 172.154 249.455C171.105 249.994 169.945 250.264 168.674 250.264C166.641 250.264 164.982 249.616 163.699 248.321C162.416 247.021 161.774 245.339 161.774 243.276C161.774 241.22 162.454 239.521 163.813 238.179C165.179 236.831 166.901 236.157 168.981 236.157C171.062 236.157 172.74 236.781 174.018 238.029C175.295 239.271 175.934 240.912 175.934 242.951ZM173.912 242.934C173.912 241.451 173.473 240.265 172.594 239.374C171.715 238.489 170.534 238.047 169.052 238.047C167.563 238.047 166.312 238.545 165.299 239.541C164.297 240.537 163.796 241.782 163.796 243.276C163.796 244.753 164.262 245.975 165.193 246.941C166.125 247.902 167.303 248.383 168.727 248.383C170.209 248.383 171.442 247.864 172.427 246.827C173.417 245.802 173.912 244.504 173.912 242.934ZM183.162 243.927L182.415 250H180.402L181.175 243.786L177.651 236.43H179.813L182.318 241.826L185.878 236.43H188.189L183.162 243.927Z" fill="#11056B"/>
<path d="M104.25 431.841C104.353 432.042 104.421 432.236 104.452 432.424C104.485 432.609 104.491 432.784 104.471 432.949C104.451 433.114 104.407 433.269 104.34 433.413C104.272 433.556 104.193 433.686 104.101 433.803C104.01 433.919 103.908 434.023 103.797 434.114C103.688 434.203 103.579 434.276 103.469 434.332L99.5537 436.356L99.0291 435.341L102.945 433.317C103.14 433.216 103.261 433.081 103.309 432.911C103.359 432.74 103.334 432.559 103.235 432.366C103.186 432.272 103.128 432.194 103.059 432.131C102.99 432.067 102.913 432.021 102.829 431.992C102.747 431.962 102.659 431.951 102.565 431.96C102.473 431.968 102.381 431.996 102.287 432.045L99.9525 433.251C99.7885 433.336 99.5967 433.399 99.3771 433.44C99.1562 433.478 98.9301 433.474 98.6989 433.429C98.4703 433.382 98.2469 433.282 98.0286 433.127C97.8129 432.972 97.6264 432.742 97.469 432.437C97.3117 432.133 97.2325 431.849 97.2316 431.585C97.232 431.318 97.2792 431.078 97.3734 430.864C97.4687 430.647 97.5966 430.46 97.757 430.305C97.9161 430.147 98.0776 430.025 98.2416 429.94L101.697 428.155L102.221 429.17L98.7661 430.955C98.5735 431.055 98.4528 431.192 98.4041 431.365C98.3579 431.537 98.3846 431.72 98.4841 431.912C98.585 432.108 98.7184 432.235 98.8842 432.294C99.0514 432.35 99.2313 432.328 99.4239 432.228L101.758 431.022L101.766 431.018C101.877 430.964 102.001 430.919 102.138 430.885C102.274 430.848 102.416 430.827 102.566 430.822C102.717 430.816 102.871 430.829 103.026 430.861C103.18 430.891 103.33 430.945 103.476 431.024C103.625 431.102 103.766 431.208 103.897 431.341C104.029 431.474 104.146 431.641 104.25 431.841ZM110.484 427.808L107.279 429.465L106.751 428.442L109.956 426.785L110.484 427.808ZM112.123 429.86L108.462 431.752C108.321 431.825 108.155 431.88 107.962 431.916C107.77 431.953 107.574 431.952 107.373 431.914C107.173 431.872 106.979 431.787 106.79 431.657C106.602 431.523 106.44 431.325 106.304 431.062L104.412 427.4C104.375 427.33 104.354 427.256 104.348 427.181C104.341 427.105 104.348 427.032 104.368 426.962C104.391 426.891 104.427 426.826 104.476 426.768C104.525 426.71 104.586 426.662 104.659 426.624L109.23 424.261L109.755 425.277L105.687 427.379L107.319 430.537C107.388 430.67 107.475 430.753 107.582 430.787C107.688 430.821 107.809 430.803 107.945 430.733L111.599 428.845L112.123 429.86ZM119.368 426.116L114.738 428.509C114.665 428.546 114.591 428.568 114.515 428.574C114.439 428.581 114.366 428.574 114.296 428.554C114.228 428.53 114.165 428.493 114.106 428.444C114.048 428.395 114 428.334 113.962 428.261L111.333 423.175L112.348 422.65L114.717 427.233L118.844 425.101L119.368 426.116ZM124.63 420.497L121.425 422.154L120.896 421.131L124.102 419.475L124.63 420.497ZM126.269 422.549L122.607 424.442C122.467 424.514 122.301 424.569 122.108 424.606C121.916 424.642 121.72 424.642 121.519 424.604C121.319 424.562 121.125 424.476 120.935 424.346C120.748 424.212 120.586 424.014 120.45 423.751L118.557 420.089C118.521 420.019 118.5 419.946 118.494 419.87C118.487 419.794 118.494 419.721 118.514 419.651C118.537 419.58 118.573 419.516 118.622 419.457C118.671 419.399 118.732 419.351 118.805 419.313L123.376 416.951L123.901 417.966L119.833 420.068L121.465 423.227C121.534 423.359 121.621 423.443 121.728 423.477C121.834 423.511 121.955 423.493 122.091 423.423L125.745 421.534L126.269 422.549ZM133.346 418.892L129.684 420.784C129.591 420.833 129.484 420.875 129.364 420.91C129.245 420.942 129.12 420.962 128.989 420.971C128.861 420.977 128.73 420.969 128.596 420.946C128.46 420.921 128.328 420.875 128.199 420.81C128.071 420.741 127.949 420.649 127.833 420.534C127.717 420.416 127.613 420.27 127.523 420.096L126.103 417.347C126.054 417.254 126.013 417.148 125.978 417.031C125.945 416.909 125.925 416.784 125.918 416.656C125.91 416.525 125.919 416.392 125.944 416.257C125.97 416.121 126.016 415.99 126.083 415.864C126.15 415.733 126.242 415.61 126.357 415.494C126.472 415.379 126.617 415.276 126.791 415.186L130.453 413.294L130.978 414.309L127.316 416.201C127.183 416.27 127.1 416.357 127.066 416.464C127.032 416.57 127.05 416.693 127.122 416.831L128.538 419.571C128.605 419.701 128.693 419.785 128.801 419.821C128.91 419.854 129.03 419.837 129.16 419.769L132.822 417.877L133.346 418.892ZM138.117 410.619L135.88 411.775L138.249 416.358L137.234 416.883L134.865 412.3L132.624 413.458L132.099 412.443L137.592 409.604L138.117 410.619Z" fill="#11056B"/>
<path d="M162.25 431.087C162.353 431.287 162.421 431.481 162.452 431.67C162.485 431.854 162.491 432.029 162.471 432.194C162.451 432.36 162.407 432.514 162.34 432.658C162.272 432.802 162.193 432.932 162.101 433.048C162.01 433.165 161.908 433.268 161.797 433.359C161.688 433.448 161.579 433.521 161.469 433.578L157.554 435.601L157.029 434.586L160.945 432.563C161.14 432.462 161.261 432.326 161.309 432.157C161.359 431.986 161.334 431.804 161.235 431.611C161.186 431.518 161.128 431.439 161.059 431.376C160.99 431.313 160.913 431.266 160.829 431.237C160.747 431.207 160.659 431.196 160.565 431.206C160.473 431.213 160.381 431.241 160.287 431.29L157.952 432.496C157.789 432.581 157.597 432.644 157.377 432.685C157.156 432.723 156.93 432.72 156.699 432.674C156.47 432.627 156.247 432.527 156.029 432.373C155.813 432.217 155.626 431.987 155.469 431.682C155.312 431.378 155.233 431.094 155.232 430.831C155.232 430.563 155.279 430.323 155.373 430.109C155.469 429.892 155.597 429.705 155.757 429.55C155.916 429.392 156.078 429.27 156.242 429.186L159.697 427.4L160.221 428.415L156.766 430.201C156.574 430.3 156.453 430.437 156.404 430.61C156.358 430.783 156.385 430.965 156.484 431.158C156.585 431.353 156.718 431.48 156.884 431.54C157.051 431.595 157.231 431.573 157.424 431.473L159.758 430.267L159.766 430.263C159.877 430.209 160.001 430.165 160.138 430.13C160.274 430.093 160.416 430.072 160.566 430.067C160.717 430.062 160.871 430.075 161.026 430.107C161.18 430.136 161.33 430.19 161.476 430.27C161.625 430.348 161.766 430.453 161.897 430.586C162.029 430.719 162.146 430.886 162.25 431.087ZM167.852 424.471L165.615 425.628L167.984 430.211L166.969 430.735L164.6 426.152L162.359 427.31L161.835 426.295L167.328 423.456L167.852 424.471ZM177.547 425.268L176.532 425.793L175.822 424.419L172.254 426.263L172.964 427.637L171.949 428.162L170.503 425.362C170.291 424.954 170.167 424.541 170.13 424.125C170.093 423.709 170.136 423.313 170.258 422.936C170.38 422.56 170.576 422.215 170.845 421.901C171.115 421.586 171.452 421.325 171.855 421.117L174.143 419.934C174.213 419.898 174.286 419.877 174.362 419.87C174.438 419.864 174.511 419.872 174.583 419.895C174.654 419.918 174.718 419.954 174.777 420.003C174.835 420.052 174.882 420.111 174.919 420.181L177.547 425.268ZM171.729 425.248L175.298 423.404L174.164 421.21L172.38 422.132C172.348 422.148 172.285 422.187 172.189 422.25C172.094 422.309 171.989 422.391 171.875 422.496C171.764 422.6 171.655 422.727 171.548 422.878C171.442 423.029 171.361 423.202 171.308 423.398C171.254 423.594 171.239 423.813 171.261 424.055C171.286 424.293 171.371 424.554 171.518 424.838L171.729 425.248ZM183.683 417.388C183.803 417.62 183.881 417.841 183.918 418.053C183.955 418.265 183.96 418.467 183.934 418.658C183.909 418.846 183.858 419.022 183.782 419.187C183.706 419.352 183.614 419.503 183.507 419.641C183.401 419.775 183.284 419.893 183.156 419.995C183.03 420.097 182.905 420.18 182.78 420.244L185.846 420.98L184.277 421.791L181.214 421.053L180.484 421.431L179.96 420.415L182.255 419.229C182.378 419.153 182.48 419.067 182.563 418.971C182.646 418.872 182.707 418.766 182.745 418.655C182.785 418.541 182.8 418.423 182.789 418.3C182.777 418.175 182.737 418.045 182.668 417.913L182.337 417.272C182.308 417.215 182.278 417.176 182.247 417.156C182.218 417.131 182.189 417.118 182.158 417.118C182.13 417.113 182.101 417.116 182.074 417.127C182.049 417.136 182.026 417.146 182.006 417.157L178.656 418.888L181.025 423.471L180.01 423.996L177.381 418.909C177.344 418.839 177.323 418.766 177.317 418.69C177.311 418.614 177.317 418.541 177.338 418.471C177.36 418.4 177.396 418.336 177.445 418.277C177.494 418.219 177.555 418.171 177.628 418.133L181.481 416.142C181.708 416.025 181.92 415.968 182.12 415.97C182.317 415.97 182.497 416.008 182.658 416.083C182.82 416.154 182.959 416.251 183.074 416.372C183.192 416.492 183.284 416.615 183.348 416.74L183.683 417.388ZM190.546 412.743L188.309 413.899L190.678 418.482L189.663 419.007L187.294 414.424L185.053 415.582L184.529 414.567L190.022 411.728L190.546 412.743Z" fill="#11056B"/>
<path d="M229.673 371.247C229.737 371.372 229.784 371.517 229.814 371.683C229.846 371.848 229.845 372.017 229.809 372.19C229.776 372.362 229.703 372.53 229.59 372.694C229.475 372.856 229.305 372.995 229.078 373.112L225.225 375.103C225.152 375.141 225.078 375.163 225.002 375.169C224.926 375.176 224.853 375.169 224.784 375.149C224.715 375.125 224.652 375.088 224.593 375.039C224.535 374.99 224.487 374.929 224.449 374.856L222.085 370.281C222.048 370.21 222.027 370.137 222.021 370.061C222.015 369.986 222.022 369.913 222.042 369.843C222.064 369.772 222.1 369.707 222.149 369.649C222.198 369.591 222.259 369.543 222.332 369.505L225.728 367.75C225.853 367.685 225.999 367.638 226.165 367.608C226.331 367.579 226.501 367.582 226.674 367.617C226.849 367.649 227.017 367.722 227.178 367.837C227.342 367.95 227.483 368.119 227.6 368.346L227.698 368.537C227.791 368.717 227.862 368.926 227.909 369.165C227.956 369.402 227.96 369.647 227.923 369.9C228.074 369.911 228.224 369.941 228.374 369.988C228.527 370.035 228.675 370.104 228.817 370.195C228.96 370.286 229.096 370.402 229.225 370.543C229.354 370.684 229.47 370.854 229.572 371.052L229.673 371.247ZM228.557 371.576C228.488 371.443 228.406 371.336 228.311 371.253C228.214 371.168 228.108 371.107 227.994 371.071C227.879 371.034 227.759 371.024 227.632 371.04C227.503 371.054 227.373 371.095 227.24 371.163L224.952 372.346L224.424 371.323L226.255 370.376C226.388 370.308 226.497 370.226 226.584 370.132C226.669 370.035 226.73 369.93 226.766 369.815C226.803 369.701 226.814 369.581 226.799 369.457C226.785 369.329 226.744 369.198 226.676 369.066L226.577 368.874C226.501 368.729 226.394 368.692 226.253 368.765L223.36 370.26L225.204 373.828L228.554 372.097C228.572 372.088 228.593 372.075 228.618 372.059C228.643 372.043 228.662 372.023 228.676 371.999C228.69 371.975 228.697 371.944 228.697 371.904C228.696 371.865 228.682 371.818 228.654 371.763L228.557 371.576Z" fill="#11056B"/>
<path d="M278.214 347.525L277.199 348.049L276.489 346.675L272.921 348.519L273.631 349.894L272.616 350.418L271.17 347.619C270.958 347.21 270.834 346.798 270.797 346.382C270.76 345.966 270.803 345.569 270.925 345.193C271.047 344.817 271.243 344.471 271.512 344.157C271.782 343.843 272.119 343.582 272.522 343.373L274.81 342.191C274.88 342.155 274.953 342.133 275.029 342.127C275.105 342.121 275.178 342.129 275.25 342.152C275.321 342.174 275.385 342.21 275.444 342.259C275.502 342.308 275.549 342.368 275.586 342.438L278.214 347.525ZM272.396 347.504L275.965 345.66L274.831 343.466L273.047 344.388C273.015 344.404 272.952 344.444 272.856 344.507C272.761 344.566 272.656 344.648 272.542 344.753C272.431 344.856 272.322 344.984 272.215 345.134C272.109 345.285 272.028 345.459 271.975 345.655C271.921 345.85 271.906 346.07 271.928 346.312C271.953 346.55 272.038 346.811 272.185 347.094L272.396 347.504Z" fill="#11056B"/>
<defs>
<filter id="filter0_ii_1_6" x="88.2905" y="392.29" width="45.1918" height="37.5153" filterUnits="userSpaceOnUse" color-interpolation-filters="sRGB">
<feFlood flood-opacity="0" result="BackgroundImageFix"/>
<feBlend mode="normal" in="SourceGraphic" in2="BackgroundImageFix" result="shape"/>
<feColorMatrix in="SourceAlpha" type="matrix" values="0 0 0 0 0 0 0 0 0 0 0 0 0 0 0 0 0 0 127 0" result="hardAlpha"/>
<feOffset dy="3"/>
<feGaussianBlur stdDeviation="2.7"/>
<feComposite in2="hardAlpha" operator="arithmetic" k2="-1" k3="1"/>
<feColorMatrix type="matrix" values="0 0 0 0 0 0 0 0 0 0 0 0 0 0 0 0 0 0 0.47 0"/>
<feBlend mode="normal" in2="shape" result="effect1_innerShadow_1_6"/>
<feColorMatrix in="SourceAlpha" type="matrix" values="0 0 0 0 0 0 0 0 0 0 0 0 0 0 0 0 0 0 127 0" result="hardAlpha"/>
<feOffset dy="-2"/>
<feGaussianBlur stdDeviation="1"/>
<feComposite in2="hardAlpha" operator="arithmetic" k2="-1" k3="1"/>
<feColorMatrix type="matrix" values="0 0 0 0 1 0 0 0 0 1 0 0 0 0 1 0 0 0 0.43 0"/>
<feBlend mode="normal" in2="effect1_innerShadow_1_6" result="effect2_innerShadow_1_6"/>
</filter>
<filter id="filter1_ii_1_6" x="142.29" y="392.29" width="45.1918" height="37.5153" filterUnits="userSpaceOnUse" color-interpolation-filters="sRGB">
<feFlood flood-opacity="0" result="BackgroundImageFix"/>
<feBlend mode="normal" in="SourceGraphic" in2="BackgroundImageFix" result="shape"/>
<feColorMatrix in="SourceAlpha" type="matrix" values="0 0 0 0 0 0 0 0 0 0 0 0 0 0 0 0 0 0 127 0" result="hardAlpha"/>
<feOffset dy="3"/>
<feGaussianBlur stdDeviation="2.7"/>
<feComposite in2="hardAlpha" operator="arithmetic" k2="-1" k3="1"/>
<feColorMatrix type="matrix" values="0 0 0 0 0 0 0 0 0 0 0 0 0 0 0 0 0 0 0.47 0"/>
<feBlend mode="normal" in2="shape" result="effect1_innerShadow_1_6"/>
<feColorMatrix in="SourceAlpha" type="matrix" values="0 0 0 0 0 0 0 0 0 0 0 0 0 0 0 0 0 0 127 0" result="hardAlpha"/>
<feOffset dy="-2"/>
<feGaussianBlur stdDeviation="1"/>
<feComposite in2="hardAlpha" operator="arithmetic" k2="-1" k3="1"/>
<feColorMatrix type="matrix" values="0 0 0 0 1 0 0 0 0 1 0 0 0 0 1 0 0 0 0.43 0"/>
<feBlend mode="normal" in2="effect1_innerShadow_1_6" result="effect2_innerShadow_1_6"/>
</filter>
<linearGradient id="paint0_linear_1_6" x1="61.5" y1="289" x2="61.5" y2="384" gradientUnits="userSpaceOnUse">
<stop stop-color="#DED0C7"/>
<stop offset="1" stop-color="#EDE3D9"/>
</linearGradient>
<linearGradient id="paint1_linear_1_6" x1="109.313" y1="414.99" x2="109.874" y2="423.723" gradientUnits="userSpaceOnUse">
<stop stop-color="#93979A"/>
<stop offset="1" stop-color="#585659"/>
</linearGradient>
<linearGradient id="paint2_linear_1_6" x1="163.313" y1="414.99" x2="163.644" y2="424.168" gradientUnits="userSpaceOnUse">
<stop stop-color="#93979A"/>
<stop offset="1" stop-color="#585659"/>
</linearGradient>
<linearGradient id="paint3_linear_1_6" x1="216.388" y1="332.51" x2="218.605" y2="379.225" gradientUnits="userSpaceOnUse">
<stop stop-color="#D0C1B9"/>
<stop offset="1" stop-color="#FBF7EC"/>
</linearGradient>
<linearGradient id="paint4_linear_1_6" x1="211" y1="324" x2="211" y2="360" gradientUnits="userSpaceOnUse">
<stop stop-color="#B9156E"/>
<stop offset="1" stop-color="#8F0048"/>
</linearGradient>
<linearGradient id="paint5_linear_1_6" x1="260" y1="300" x2="260" y2="336" gradientUnits="userSpaceOnUse">
<stop stop-color="#B9156E"/>
<stop offset="1" stop-color="#8F0048"/>
</linearGradient>
</defs>
</svg>
