<svg width="334" height="536" viewBox="0 0 334 536" fill="none" xmlns="http://www.w3.org/2000/svg">
<g filter="url(#filter0_d_1_6)">
<path d="M4 12C4 5.37258 9.37258 0 16 0H290C296.627 0 302 5.37258 302 12V422C302 465.078 267.078 500 224 500H16C9.37259 500 4 494.627 4 488V12Z" fill="#E6D9D0"/>
<path d="M16 0.5H290C296.351 0.5 301.5 5.64873 301.5 12V422C301.5 464.802 266.802 499.5 224 499.5H16C9.64873 499.5 4.5 494.351 4.5 488V12C4.5 5.64872 9.64873 0.5 16 0.5Z" stroke="black"/>
</g>
<path d="M39 39.5H270C276.351 39.5 281.5 44.6487 281.5 51V191C281.5 212.815 263.815 230.5 242 230.5H39C32.6487 230.5 27.5 225.351 27.5 219V51C27.5 44.6487 32.6487 39.5 39 39.5Z" fill="#6A6581" stroke="black"/>
<path d="M301.5 27.5H4.5V21.5H26.5V0.5H31V21.5H276.5V0.5H281V21.5H301.5V27.5Z" stroke="black"/>
<line x1="39" y1="48.25" x2="107" y2="48.25" stroke="#641956" stroke-width="1.5"/>
<line x1="39" y1="53" x2="107" y2="53" stroke="#07023C" stroke-width="2"/>
<path d="M112.632 53V47.7227H113.74C114.271 47.7227 114.69 47.7751 114.998 47.8799C115.328 47.9824 115.628 48.1567 115.896 48.4028C116.441 48.8996 116.713 49.5524 116.713 50.3613C116.713 51.1725 116.43 51.8288 115.862 52.3301C115.577 52.5807 115.279 52.755 114.967 52.853C114.675 52.951 114.262 53 113.726 53H112.632ZM113.429 52.2515H113.788C114.145 52.2515 114.443 52.2139 114.68 52.1387C114.917 52.0589 115.131 51.9325 115.322 51.7593C115.714 51.4015 115.91 50.9355 115.91 50.3613C115.91 49.7826 115.716 49.3132 115.329 48.9531C114.98 48.6318 114.467 48.4712 113.788 48.4712H113.429V52.2515ZM117.805 50.3374C117.805 49.5946 118.077 48.9565 118.622 48.4233C119.164 47.8901 119.816 47.6235 120.577 47.6235C121.329 47.6235 121.974 47.8924 122.512 48.4302C123.052 48.9679 123.322 49.6139 123.322 50.3682C123.322 51.127 123.051 51.7707 122.508 52.2993C121.964 52.8302 121.306 53.0957 120.536 53.0957C119.855 53.0957 119.243 52.8599 118.701 52.3882C118.104 51.8664 117.805 51.1828 117.805 50.3374ZM118.608 50.3477C118.608 50.931 118.804 51.4106 119.196 51.7866C119.586 52.1626 120.036 52.3506 120.546 52.3506C121.1 52.3506 121.567 52.1592 121.948 51.7764C122.328 51.389 122.518 50.9173 122.518 50.3613C122.518 49.7985 122.33 49.3268 121.954 48.9463C121.581 48.5635 121.118 48.3721 120.567 48.3721C120.018 48.3721 119.554 48.5635 119.176 48.9463C118.797 49.3245 118.608 49.7917 118.608 50.3477ZM125.938 48.4712V53H125.141V48.4712H123.928V47.7227H127.148V48.4712H125.938ZM130.534 53L131.645 47.3262L133.457 51.4277L135.333 47.3262L136.331 53H135.514L135.005 49.8145L133.443 53.2427L131.925 49.811L131.358 53H130.534ZM140.902 51.7183H138.643L138.055 53H137.197L139.809 47.3911L142.328 53H141.456L140.902 51.7183ZM140.578 50.9697L139.795 49.1753L138.975 50.9697H140.578ZM144.503 48.4712V53H143.706V48.4712H142.493V47.7227H145.713V48.4712H144.503ZM148.561 50.751L150.195 53H149.221L147.714 50.8398H147.57V53H146.774V47.7227H147.707C148.404 47.7227 148.908 47.8537 149.218 48.1157C149.559 48.4074 149.73 48.7925 149.73 49.271C149.73 49.6447 149.623 49.966 149.409 50.2349C149.195 50.5037 148.912 50.6758 148.561 50.751ZM147.57 50.146H147.823C148.577 50.146 148.954 49.8577 148.954 49.2812C148.954 48.7412 148.588 48.4712 147.854 48.4712H147.57V50.146ZM152.138 47.7227V53H151.342V47.7227H152.138ZM154.86 50.2417L153.407 47.7227H154.313L155.321 49.5103L156.381 47.7227H157.294L155.773 50.2417L157.369 53H156.477L155.308 50.98L154.105 53H153.202L154.86 50.2417ZM161.203 47.7227L162.577 51.25L164.013 47.4663L165.387 51.25L166.846 47.7227H167.711L165.352 53.335L163.996 49.5957L162.58 53.3384L160.338 47.7227H161.203ZM169.513 47.7227V53H168.717V47.7227H169.513ZM172.588 48.4712V53H171.791V48.4712H170.578V47.7227H173.798V48.4712H172.588ZM175.655 49.7871H177.931V47.7227H178.728V53H177.931V50.5356H175.655V53H174.858V47.7227H175.655V49.7871ZM185.836 48.5088L185.19 48.8916C185.07 48.682 184.954 48.5452 184.845 48.4814C184.731 48.4085 184.584 48.3721 184.404 48.3721C184.183 48.3721 184 48.4347 183.854 48.5601C183.708 48.6831 183.635 48.8381 183.635 49.0249C183.635 49.2824 183.827 49.4897 184.209 49.647L184.736 49.8623C185.164 50.0355 185.477 50.2474 185.676 50.498C185.874 50.7464 185.973 51.0518 185.973 51.4141C185.973 51.8994 185.811 52.3005 185.488 52.6172C185.162 52.9362 184.757 53.0957 184.274 53.0957C183.816 53.0957 183.438 52.9601 183.14 52.689C182.846 52.4178 182.662 52.0361 182.589 51.5439L183.396 51.3662C183.432 51.6761 183.496 51.8903 183.587 52.0088C183.751 52.2367 183.991 52.3506 184.305 52.3506C184.553 52.3506 184.76 52.2674 184.924 52.1011C185.088 51.9347 185.17 51.724 185.17 51.4688C185.17 51.3662 185.155 51.2728 185.125 51.1885C185.098 51.1019 185.054 51.0233 184.992 50.9526C184.933 50.8797 184.855 50.8125 184.76 50.751C184.664 50.6872 184.55 50.6268 184.418 50.5698L183.909 50.3579C183.186 50.0526 182.825 49.606 182.825 49.0181C182.825 48.6216 182.977 48.29 183.28 48.0234C183.583 47.7546 183.96 47.6201 184.411 47.6201C185.019 47.6201 185.495 47.9163 185.836 48.5088ZM188.842 48.4712V53H188.046V48.4712H186.832V47.7227H190.052V48.4712H188.842ZM194.025 48.4712H191.909V49.7393H193.964V50.4878H191.909V52.2515H194.025V53H191.113V47.7227H194.025V48.4712ZM197.209 50.751L198.842 53H197.868L196.361 50.8398H196.217V53H195.421V47.7227H196.354C197.051 47.7227 197.555 47.8537 197.865 48.1157C198.207 48.4074 198.378 48.7925 198.378 49.271C198.378 49.6447 198.27 49.966 198.056 50.2349C197.842 50.5037 197.56 50.6758 197.209 50.751ZM196.217 50.146H196.47C197.225 50.146 197.602 49.8577 197.602 49.2812C197.602 48.7412 197.235 48.4712 196.501 48.4712H196.217V50.146ZM200.785 47.7227V53H199.989V47.7227H200.785ZM202.14 50.3374C202.14 49.5946 202.412 48.9565 202.957 48.4233C203.499 47.8901 204.151 47.6235 204.912 47.6235C205.664 47.6235 206.309 47.8924 206.847 48.4302C207.387 48.9679 207.657 49.6139 207.657 50.3682C207.657 51.127 207.385 51.7707 206.843 52.2993C206.299 52.8302 205.641 53.0957 204.871 53.0957C204.19 53.0957 203.578 52.8599 203.036 52.3882C202.439 51.8664 202.14 51.1828 202.14 50.3374ZM202.943 50.3477C202.943 50.931 203.139 51.4106 203.531 51.7866C203.921 52.1626 204.371 52.3506 204.881 52.3506C205.435 52.3506 205.902 52.1592 206.283 51.7764C206.663 51.389 206.853 50.9173 206.853 50.3613C206.853 49.7985 206.665 49.3268 206.289 48.9463C205.916 48.5635 205.453 48.3721 204.902 48.3721C204.353 48.3721 203.889 48.5635 203.511 48.9463C203.132 49.3245 202.943 49.7917 202.943 50.3477ZM214.502 48.5088L213.856 48.8916C213.735 48.682 213.62 48.5452 213.511 48.4814C213.397 48.4085 213.25 48.3721 213.07 48.3721C212.849 48.3721 212.666 48.4347 212.52 48.5601C212.374 48.6831 212.301 48.8381 212.301 49.0249C212.301 49.2824 212.492 49.4897 212.875 49.647L213.402 49.8623C213.83 50.0355 214.143 50.2474 214.342 50.498C214.54 50.7464 214.639 51.0518 214.639 51.4141C214.639 51.8994 214.477 52.3005 214.154 52.6172C213.828 52.9362 213.423 53.0957 212.94 53.0957C212.482 53.0957 212.104 52.9601 211.805 52.689C211.511 52.4178 211.328 52.0361 211.255 51.5439L212.062 51.3662C212.098 51.6761 212.162 51.8903 212.253 52.0088C212.417 52.2367 212.656 52.3506 212.971 52.3506C213.219 52.3506 213.425 52.2674 213.59 52.1011C213.754 51.9347 213.836 51.724 213.836 51.4688C213.836 51.3662 213.821 51.2728 213.791 51.1885C213.764 51.1019 213.719 51.0233 213.658 50.9526C213.599 50.8797 213.521 50.8125 213.425 50.751C213.33 50.6872 213.216 50.6268 213.084 50.5698L212.574 50.3579C211.852 50.0526 211.491 49.606 211.491 49.0181C211.491 48.6216 211.642 48.29 211.946 48.0234C212.249 47.7546 212.626 47.6201 213.077 47.6201C213.685 47.6201 214.16 47.9163 214.502 48.5088ZM215.686 50.3374C215.686 49.5946 215.958 48.9565 216.503 48.4233C217.045 47.8901 217.697 47.6235 218.458 47.6235C219.21 47.6235 219.855 47.8924 220.393 48.4302C220.933 48.9679 221.203 49.6139 221.203 50.3682C221.203 51.127 220.932 51.7707 220.389 52.2993C219.845 52.8302 219.187 53.0957 218.417 53.0957C217.736 53.0957 217.124 52.8599 216.582 52.3882C215.985 51.8664 215.686 51.1828 215.686 50.3374ZM216.489 50.3477C216.489 50.931 216.685 51.4106 217.077 51.7866C217.467 52.1626 217.917 52.3506 218.427 52.3506C218.981 52.3506 219.448 52.1592 219.829 51.7764C220.209 51.389 220.4 50.9173 220.4 50.3613C220.4 49.7985 220.212 49.3268 219.836 48.9463C219.462 48.5635 218.999 48.3721 218.448 48.3721C217.899 48.3721 217.435 48.5635 217.057 48.9463C216.678 49.3245 216.489 49.7917 216.489 50.3477ZM223.351 47.7227V50.9014C223.351 51.3548 223.425 51.6864 223.573 51.896C223.794 52.1991 224.105 52.3506 224.506 52.3506C224.909 52.3506 225.221 52.1991 225.442 51.896C225.59 51.6932 225.665 51.3617 225.665 50.9014V47.7227H226.461V51.1201C226.461 51.6761 226.288 52.1341 225.941 52.4941C225.552 52.8952 225.073 53.0957 224.506 53.0957C223.938 53.0957 223.461 52.8952 223.074 52.4941C222.727 52.1341 222.554 51.6761 222.554 51.1201V47.7227H223.351ZM228.079 53V47.3638L231.928 51.3901V47.7227H232.724V53.3213L228.875 49.3052V53H228.079ZM234.342 53V47.7227H235.45C235.98 47.7227 236.4 47.7751 236.707 47.8799C237.038 47.9824 237.337 48.1567 237.606 48.4028C238.151 48.8996 238.423 49.5524 238.423 50.3613C238.423 51.1725 238.139 51.8288 237.572 52.3301C237.287 52.5807 236.989 52.755 236.677 52.853C236.385 52.951 235.971 53 235.436 53H234.342ZM235.138 52.2515H235.497C235.855 52.2515 236.152 52.2139 236.389 52.1387C236.626 52.0589 236.841 51.9325 237.032 51.7593C237.424 51.4015 237.62 50.9355 237.62 50.3613C237.62 49.7826 237.426 49.3132 237.039 48.9531C236.69 48.6318 236.176 48.4712 235.497 48.4712H235.138V52.2515Z" fill="#B2B0C8"/>
<line x1="242" y1="48.25" x2="270" y2="48.25" stroke="#641956" stroke-width="1.5"/>
<line x1="242" y1="53" x2="270" y2="53" stroke="#07023C" stroke-width="2"/>
<circle cx="65.5" cy="336.5" r="47.5" fill="url(#paint0_linear_1_6)"/>
<rect x="27" y="323" width="76" height="27" rx="4" fill="#030512"/>
<rect x="78.5" y="298.5" width="76" height="27" rx="4" transform="rotate(90 78.5 298.5)" fill="#030512"/>
<g filter="url(#filter1_ii_1_6)">
<rect x="89" y="413.264" width="48.4861" height="18.9479" rx="9.47393" transform="rotate(-27.3345 89 413.264)" fill="#E6D9D0"/>
</g>
<g filter="url(#filter2_ii_1_6)">
<rect x="143" y="413.264" width="48.4861" height="18.9479" rx="9.47393" transform="rotate(-27.3345 143 413.264)" fill="#E6D9D0"/>
</g>
<rect x="97.6738" y="415.204" width="34.8195" height="7.68601" rx="3.84301" transform="rotate(-27.3345 97.6738 415.204)" fill="url(#paint1_linear_1_6)" stroke="black"/>
<rect x="151.674" y="415.204" width="34.8195" height="7.68601" rx="3.84301" transform="rotate(-27.3345 151.674 415.204)" fill="url(#paint2_linear_1_6)" stroke="black"/>
<rect x="180" y="329.749" width="108.772" height="50.9896" rx="25.4948" transform="rotate(-26.039 180 329.749)" fill="url(#paint3_linear_1_6)"/>
<circle cx="215" cy="342" r="17.5" fill="url(#paint4_linear_1_6)" stroke="black"/>
<circle cx="264" cy="318" r="17.5" fill="url(#paint5_linear_1_6)" stroke="black"/>
<rect x="186.74" y="441.269" width="50.8797" height="5.76337" rx="2.88168" transform="rotate(61.4433 186.74 441.269)" fill="#AC9B93" stroke="black"/>
<rect x="201.74" y="432.678" width="50.8797" height="5.76337" rx="2.88168" transform="rotate(61.4433 201.74 432.678)" fill="#AC9B93" stroke="black"/>
<rect x="216.74" y="423.678" width="50.8797" height="5.76337" rx="2.88168" transform="rotate(61.4433 216.74 423.678)" fill="#AC9B93" stroke="black"/>
<rect x="233.74" y="414.678" width="50.8797" height="5.76337" rx="2.88168" transform="rotate(61.4433 233.74 414.678)" fill="#AC9B93" stroke="black"/>
<rect x="248.74" y="405.678" width="50.8797" height="5.76337" rx="2.88168" transform="rotate(61.4433 248.74 405.678)" fill="#AC9B93" stroke="black"/>
<rect x="262.74" y="396.678" width="50.8797" height="5.76337" rx="2.88168" transform="rotate(61.4433 262.74 396.678)" fill="#AC9B93" stroke="black"/>
<path d="M30.025 245.512H30.74C31.532 245.512 31.928 245.167 31.928 244.478C31.928 243.789 31.532 243.444 30.74 243.444H30.025V245.512ZM30.025 250H27.869V241.706H31.301C32.2323 241.706 32.9437 241.948 33.435 242.432C33.9337 242.916 34.183 243.598 34.183 244.478C34.183 245.358 33.9337 246.04 33.435 246.524C32.9437 247.008 32.2323 247.25 31.301 247.25H30.025V250ZM39.1332 246.359C39.0672 246.08 38.9315 245.857 38.7262 245.688C38.5208 245.519 38.2715 245.435 37.9782 245.435C37.6702 245.435 37.4172 245.516 37.2192 245.677C37.0285 245.838 36.9075 246.066 36.8562 246.359H39.1332ZM36.8012 247.514C36.8012 248.372 37.2045 248.801 38.0112 248.801C38.4438 248.801 38.7702 248.625 38.9902 248.273H40.9152C40.5265 249.564 39.5548 250.209 38.0002 250.209C37.5235 250.209 37.0872 250.139 36.6912 250C36.2952 249.853 35.9542 249.648 35.6682 249.384C35.3895 249.12 35.1732 248.805 35.0192 248.438C34.8652 248.071 34.7882 247.661 34.7882 247.206C34.7882 246.737 34.8615 246.315 35.0082 245.941C35.1548 245.56 35.3638 245.237 35.6352 244.973C35.9065 244.709 36.2328 244.507 36.6142 244.368C37.0028 244.221 37.4392 244.148 37.9232 244.148C38.3998 244.148 38.8288 244.221 39.2102 244.368C39.5915 244.507 39.9142 244.713 40.1782 244.984C40.4422 245.255 40.6438 245.589 40.7832 245.985C40.9225 246.374 40.9922 246.814 40.9922 247.305V247.514H36.8012ZM43.9782 247.162C43.9782 247.345 44.0112 247.518 44.0772 247.679C44.1432 247.833 44.2312 247.969 44.3412 248.086C44.4586 248.203 44.5942 248.295 44.7482 248.361C44.9096 248.427 45.0819 248.46 45.2652 248.46C45.4412 248.46 45.6062 248.427 45.7602 248.361C45.9216 248.295 46.0572 248.203 46.1672 248.086C46.2846 247.969 46.3762 247.833 46.4422 247.679C46.5156 247.525 46.5522 247.36 46.5522 247.184C46.5522 247.008 46.5156 246.843 46.4422 246.689C46.3762 246.528 46.2846 246.388 46.1672 246.271C46.0572 246.154 45.9216 246.062 45.7602 245.996C45.6062 245.93 45.4412 245.897 45.2652 245.897C45.0819 245.897 44.9096 245.93 44.7482 245.996C44.5942 246.062 44.4586 246.154 44.3412 246.271C44.2312 246.388 44.1432 246.524 44.0772 246.678C44.0112 246.825 43.9782 246.986 43.9782 247.162ZM46.4862 244.357H48.4882V250H46.4862V249.373C46.0609 249.908 45.4852 250.176 44.7592 250.176C44.3486 250.176 43.9709 250.103 43.6262 249.956C43.2816 249.802 42.9809 249.589 42.7242 249.318C42.4676 249.047 42.2659 248.728 42.1192 248.361C41.9799 247.994 41.9102 247.595 41.9102 247.162C41.9102 246.759 41.9799 246.377 42.1192 246.018C42.2586 245.651 42.4529 245.332 42.7022 245.061C42.9516 244.79 43.2486 244.577 43.5932 244.423C43.9379 244.262 44.3192 244.181 44.7372 244.181C45.4412 244.181 46.0242 244.427 46.4862 244.918V244.357ZM49.8431 244.357H51.8341V245.072C52.1055 244.742 52.3805 244.522 52.6591 244.412C52.9378 244.295 53.2641 244.236 53.6381 244.236C54.0341 244.236 54.3715 244.302 54.6501 244.434C54.9361 244.559 55.1781 244.738 55.3761 244.973C55.5375 245.164 55.6475 245.376 55.7061 245.611C55.7648 245.846 55.7941 246.113 55.7941 246.414V250H53.8031V247.151C53.8031 246.872 53.7811 246.649 53.7371 246.48C53.7005 246.304 53.6308 246.165 53.5281 246.062C53.4401 245.974 53.3411 245.912 53.2311 245.875C53.1211 245.838 53.0038 245.82 52.8791 245.82C52.5418 245.82 52.2815 245.923 52.0981 246.128C51.9221 246.326 51.8341 246.612 51.8341 246.986V250H49.8431V244.357ZM59.1388 244.357V247.536C59.1388 248.233 59.4762 248.581 60.1508 248.581C60.8255 248.581 61.1628 248.233 61.1628 247.536V244.357H63.1538V247.921C63.1538 248.684 62.9008 249.256 62.3948 249.637C61.8962 250.018 61.1482 250.209 60.1508 250.209C59.1535 250.209 58.4018 250.018 57.8958 249.637C57.3972 249.256 57.1478 248.684 57.1478 247.921V244.357H59.1388ZM66.7282 246.018V250H64.7372V246.018H64.0772V244.357H64.7372V242.663H66.7282V244.357H67.8612V246.018H66.7282ZM72.8337 245.358H77.1127C77.1127 245.798 77.0944 246.198 77.0577 246.557C77.0211 246.916 76.9477 247.25 76.8377 247.558C76.6837 247.991 76.4747 248.376 76.2107 248.713C75.9467 249.043 75.6351 249.322 75.2757 249.549C74.9237 249.769 74.5351 249.938 74.1097 250.055C73.6844 250.172 73.2371 250.231 72.7677 250.231C72.1224 250.231 71.5321 250.125 70.9967 249.912C70.4687 249.699 70.0141 249.402 69.6327 249.021C69.2514 248.632 68.9544 248.17 68.7417 247.635C68.5291 247.092 68.4227 246.495 68.4227 245.842C68.4227 245.197 68.5254 244.606 68.7307 244.071C68.9434 243.528 69.2404 243.066 69.6217 242.685C70.0104 242.304 70.4761 242.007 71.0187 241.794C71.5614 241.581 72.1664 241.475 72.8337 241.475C73.6991 241.475 74.4581 241.662 75.1107 242.036C75.7634 242.41 76.2804 242.989 76.6617 243.774L74.6157 244.621C74.4251 244.166 74.1757 243.84 73.8677 243.642C73.5671 243.444 73.2224 243.345 72.8337 243.345C72.5111 243.345 72.2177 243.407 71.9537 243.532C71.6897 243.649 71.4624 243.822 71.2717 244.049C71.0884 244.269 70.9417 244.537 70.8317 244.852C70.7291 245.167 70.6777 245.519 70.6777 245.908C70.6777 246.26 70.7217 246.586 70.8097 246.887C70.9051 247.188 71.0444 247.448 71.2277 247.668C71.4111 247.888 71.6384 248.06 71.9097 248.185C72.1811 248.302 72.4964 248.361 72.8557 248.361C73.0684 248.361 73.2737 248.339 73.4717 248.295C73.6697 248.244 73.8457 248.167 73.9997 248.064C74.1611 247.954 74.2931 247.815 74.3957 247.646C74.4984 247.477 74.5681 247.272 74.6047 247.03H72.8337V245.358ZM80.6314 248.328H81.1044C81.6471 248.328 82.0358 248.258 82.2704 248.119C82.5051 247.98 82.6224 247.756 82.6224 247.448C82.6224 247.14 82.5051 246.916 82.2704 246.777C82.0358 246.638 81.6471 246.568 81.1044 246.568H80.6314V248.328ZM80.6314 244.962H81.0274C81.7021 244.962 82.0394 244.694 82.0394 244.159C82.0394 243.624 81.7021 243.356 81.0274 243.356H80.6314V244.962ZM78.4754 241.706H81.6874C82.4501 241.706 83.0294 241.889 83.4254 242.256C83.8214 242.623 84.0194 243.151 84.0194 243.84C84.0194 244.258 83.9424 244.606 83.7884 244.885C83.6418 245.156 83.4144 245.387 83.1064 245.578C83.4144 245.637 83.6748 245.728 83.8874 245.853C84.1074 245.97 84.2834 246.117 84.4154 246.293C84.5548 246.469 84.6538 246.667 84.7124 246.887C84.7711 247.107 84.8004 247.342 84.8004 247.591C84.8004 247.98 84.7308 248.324 84.5914 248.625C84.4594 248.926 84.2688 249.179 84.0194 249.384C83.7774 249.589 83.4804 249.743 83.1284 249.846C82.7764 249.949 82.3804 250 81.9404 250H78.4754V241.706ZM97.9105 243.689H103.342C103.207 245.23 102.838 246.493 102.235 247.478C101.098 249.335 99.4105 250.264 97.1723 250.264C95.2855 250.264 93.7328 249.628 92.5141 248.356C91.2953 247.085 90.6859 245.462 90.6859 243.487C90.6859 242.415 90.8939 241.369 91.31 240.35C91.7201 239.354 92.2943 238.521 93.0326 237.854C94.2689 236.723 95.8012 236.157 97.6293 236.157C99.8676 236.157 101.722 237.068 103.193 238.891L101.883 240.227C100.776 238.773 99.3461 238.047 97.5941 238.047C96.1469 238.047 94.9721 238.548 94.0697 239.55C93.1615 240.563 92.7074 241.861 92.7074 243.443C92.7074 244.896 93.1322 246.083 93.9818 247.003C94.8314 247.923 95.9359 248.383 97.2953 248.383C98.2562 248.383 99.0766 248.119 99.7562 247.592C100.43 247.064 100.864 246.344 101.057 245.43H97.6908L97.9105 243.689ZM108.171 246.81L106.519 250H104.33L111.836 235.463L116.521 250H114.42L113.436 246.81H108.171ZM109.041 245.069H112.873L111.414 240.244L109.041 245.069ZM132.81 235.146L133.926 250H132.01L131.404 241.352L126.148 250.949L123.239 241.352L120.532 250H118.475L123.169 235.472L126.605 246.563L132.81 235.146ZM146.059 236.43L145.83 238.302H140.847L140.416 241.817H145.4L145.189 243.558H140.205L139.643 248.128H144.626L144.389 250H137.402L139.071 236.43H146.059ZM156.006 236.43H158.52C159.311 236.43 159.953 236.515 160.445 236.685C160.925 236.854 161.332 237.142 161.666 237.546C162.2 238.185 162.466 238.955 162.466 239.857C162.466 241.229 161.807 242.274 160.489 242.995C162.088 243.394 162.888 244.396 162.888 246.001C162.888 246.663 162.747 247.287 162.466 247.873C162.197 248.453 161.816 248.922 161.324 249.279C160.931 249.566 160.5 249.757 160.032 249.851C159.786 249.897 159.49 249.936 159.144 249.965C158.798 249.988 158.388 250 157.913 250H154.336L156.006 236.43ZM157.782 238.302L157.289 242.362H157.861C159.583 242.362 160.445 241.56 160.445 239.954C160.445 238.853 159.788 238.302 158.476 238.302H157.782ZM157.087 243.971L156.578 248.128H157.931C158.939 248.128 159.63 248.002 160.005 247.75C160.579 247.369 160.867 246.736 160.867 245.852C160.867 245.518 160.817 245.233 160.717 244.999C160.623 244.759 160.474 244.562 160.269 244.41C160.064 244.258 159.797 244.146 159.469 244.076C159.147 244.006 158.757 243.971 158.3 243.971H157.087ZM179.934 242.951C179.934 244.498 179.523 245.901 178.703 247.161C178.053 248.151 177.203 248.916 176.154 249.455C175.105 249.994 173.945 250.264 172.674 250.264C170.641 250.264 168.982 249.616 167.699 248.321C166.416 247.021 165.774 245.339 165.774 243.276C165.774 241.22 166.454 239.521 167.813 238.179C169.179 236.831 170.901 236.157 172.981 236.157C175.062 236.157 176.74 236.781 178.018 238.029C179.295 239.271 179.934 240.912 179.934 242.951ZM177.912 242.934C177.912 241.451 177.473 240.265 176.594 239.374C175.715 238.489 174.534 238.047 173.052 238.047C171.563 238.047 170.312 238.545 169.299 239.541C168.297 240.537 167.796 241.782 167.796 243.276C167.796 244.753 168.262 245.975 169.193 246.941C170.125 247.902 171.303 248.383 172.727 248.383C174.209 248.383 175.442 247.864 176.427 246.827C177.417 245.802 177.912 244.504 177.912 242.934ZM187.162 243.927L186.415 250H184.402L185.175 243.786L181.651 236.43H183.813L186.318 241.826L189.878 236.43H192.189L187.162 243.927Z" fill="#11056B"/>
<path d="M108.25 431.841C108.353 432.042 108.421 432.236 108.452 432.424C108.485 432.609 108.491 432.784 108.471 432.949C108.451 433.114 108.407 433.269 108.34 433.413C108.272 433.556 108.193 433.686 108.101 433.803C108.01 433.919 107.908 434.023 107.797 434.114C107.688 434.203 107.579 434.276 107.469 434.332L103.554 436.356L103.029 435.341L106.945 433.317C107.14 433.216 107.261 433.081 107.309 432.911C107.359 432.74 107.334 432.559 107.235 432.366C107.186 432.272 107.128 432.194 107.059 432.131C106.99 432.067 106.913 432.021 106.829 431.992C106.747 431.962 106.659 431.951 106.565 431.96C106.473 431.968 106.381 431.996 106.287 432.045L103.952 433.251C103.789 433.336 103.597 433.399 103.377 433.44C103.156 433.478 102.93 433.474 102.699 433.429C102.47 433.382 102.247 433.282 102.029 433.127C101.813 432.972 101.626 432.742 101.469 432.437C101.312 432.133 101.233 431.849 101.232 431.585C101.232 431.318 101.279 431.078 101.373 430.864C101.469 430.647 101.597 430.46 101.757 430.305C101.916 430.147 102.078 430.025 102.242 429.94L105.697 428.155L106.221 429.17L102.766 430.955C102.574 431.055 102.453 431.192 102.404 431.365C102.358 431.537 102.385 431.72 102.484 431.912C102.585 432.108 102.718 432.235 102.884 432.294C103.051 432.35 103.231 432.328 103.424 432.228L105.758 431.022L105.766 431.018C105.877 430.964 106.001 430.919 106.138 430.885C106.274 430.848 106.416 430.827 106.566 430.822C106.717 430.816 106.871 430.829 107.026 430.861C107.18 430.891 107.33 430.945 107.476 431.024C107.625 431.102 107.766 431.208 107.897 431.341C108.029 431.474 108.146 431.641 108.25 431.841ZM114.484 427.808L111.279 429.465L110.751 428.442L113.956 426.785L114.484 427.808ZM116.123 429.86L112.462 431.752C112.321 431.825 112.155 431.88 111.962 431.916C111.77 431.953 111.574 431.952 111.373 431.914C111.173 431.872 110.979 431.787 110.79 431.657C110.602 431.523 110.44 431.325 110.304 431.062L108.412 427.4C108.375 427.33 108.354 427.256 108.348 427.181C108.341 427.105 108.348 427.032 108.368 426.962C108.391 426.891 108.427 426.826 108.476 426.768C108.525 426.71 108.586 426.662 108.659 426.624L113.23 424.261L113.755 425.277L109.687 427.379L111.319 430.537C111.388 430.67 111.475 430.753 111.582 430.787C111.688 430.821 111.809 430.803 111.945 430.733L115.599 428.845L116.123 429.86ZM123.368 426.116L118.738 428.509C118.665 428.546 118.591 428.568 118.515 428.574C118.439 428.581 118.366 428.574 118.296 428.554C118.228 428.53 118.165 428.493 118.106 428.444C118.048 428.395 118 428.334 117.962 428.261L115.333 423.175L116.348 422.65L118.717 427.233L122.844 425.101L123.368 426.116ZM128.63 420.497L125.425 422.154L124.896 421.131L128.102 419.475L128.63 420.497ZM130.269 422.549L126.607 424.442C126.467 424.514 126.301 424.569 126.108 424.606C125.916 424.642 125.72 424.642 125.519 424.604C125.319 424.562 125.125 424.476 124.935 424.346C124.748 424.212 124.586 424.014 124.45 423.751L122.557 420.089C122.521 420.019 122.5 419.946 122.494 419.87C122.487 419.794 122.494 419.721 122.514 419.651C122.537 419.58 122.573 419.516 122.622 419.457C122.671 419.399 122.732 419.351 122.805 419.313L127.376 416.951L127.901 417.966L123.833 420.068L125.465 423.227C125.534 423.359 125.621 423.443 125.728 423.477C125.834 423.511 125.955 423.493 126.091 423.423L129.745 421.534L130.269 422.549ZM137.346 418.892L133.684 420.784C133.591 420.833 133.484 420.875 133.364 420.91C133.245 420.942 133.12 420.962 132.989 420.971C132.861 420.977 132.73 420.969 132.596 420.946C132.46 420.921 132.328 420.875 132.199 420.81C132.071 420.741 131.949 420.649 131.833 420.534C131.717 420.416 131.613 420.27 131.523 420.096L130.103 417.347C130.054 417.254 130.013 417.148 129.978 417.031C129.945 416.909 129.925 416.784 129.918 416.656C129.91 416.525 129.919 416.392 129.944 416.257C129.97 416.121 130.016 415.99 130.083 415.864C130.15 415.733 130.242 415.61 130.357 415.494C130.472 415.379 130.617 415.276 130.791 415.186L134.453 413.294L134.978 414.309L131.316 416.201C131.183 416.27 131.1 416.357 131.066 416.464C131.032 416.57 131.05 416.693 131.122 416.831L132.538 419.571C132.605 419.701 132.693 419.785 132.801 419.821C132.91 419.854 133.03 419.837 133.16 419.769L136.822 417.877L137.346 418.892ZM142.117 410.619L139.88 411.775L142.249 416.358L141.234 416.883L138.865 412.3L136.624 413.458L136.099 412.443L141.592 409.604L142.117 410.619Z" fill="#11056B"/>
<path d="M166.25 431.087C166.353 431.287 166.421 431.481 166.452 431.67C166.485 431.854 166.491 432.029 166.471 432.194C166.451 432.36 166.407 432.514 166.34 432.658C166.272 432.802 166.193 432.932 166.101 433.048C166.01 433.165 165.908 433.268 165.797 433.359C165.688 433.448 165.579 433.521 165.469 433.578L161.554 435.601L161.029 434.586L164.945 432.563C165.14 432.462 165.261 432.326 165.309 432.157C165.359 431.986 165.334 431.804 165.235 431.611C165.186 431.518 165.128 431.439 165.059 431.376C164.99 431.313 164.913 431.266 164.829 431.237C164.747 431.207 164.659 431.196 164.565 431.206C164.473 431.213 164.381 431.241 164.287 431.29L161.952 432.496C161.789 432.581 161.597 432.644 161.377 432.685C161.156 432.723 160.93 432.72 160.699 432.674C160.47 432.627 160.247 432.527 160.029 432.373C159.813 432.217 159.626 431.987 159.469 431.682C159.312 431.378 159.233 431.094 159.232 430.831C159.232 430.563 159.279 430.323 159.373 430.109C159.469 429.892 159.597 429.705 159.757 429.55C159.916 429.392 160.078 429.27 160.242 429.186L163.697 427.4L164.221 428.415L160.766 430.201C160.574 430.3 160.453 430.437 160.404 430.61C160.358 430.783 160.385 430.965 160.484 431.158C160.585 431.353 160.718 431.48 160.884 431.54C161.051 431.595 161.231 431.573 161.424 431.473L163.758 430.267L163.766 430.263C163.877 430.209 164.001 430.165 164.138 430.13C164.274 430.093 164.416 430.072 164.566 430.067C164.717 430.062 164.871 430.075 165.026 430.107C165.18 430.136 165.33 430.19 165.476 430.27C165.625 430.348 165.766 430.453 165.897 430.586C166.029 430.719 166.146 430.886 166.25 431.087ZM171.852 424.471L169.615 425.628L171.984 430.211L170.969 430.735L168.6 426.152L166.359 427.31L165.835 426.295L171.328 423.456L171.852 424.471ZM181.547 425.268L180.532 425.793L179.822 424.419L176.254 426.263L176.964 427.637L175.949 428.162L174.503 425.362C174.291 424.954 174.167 424.541 174.13 424.125C174.093 423.709 174.136 423.313 174.258 422.936C174.38 422.56 174.576 422.215 174.845 421.901C175.115 421.586 175.452 421.325 175.855 421.117L178.143 419.934C178.213 419.898 178.286 419.877 178.362 419.87C178.438 419.864 178.511 419.872 178.583 419.895C178.654 419.918 178.718 419.954 178.777 420.003C178.835 420.052 178.882 420.111 178.919 420.181L181.547 425.268ZM175.729 425.248L179.298 423.404L178.164 421.21L176.38 422.132C176.348 422.148 176.285 422.187 176.189 422.25C176.094 422.309 175.989 422.391 175.875 422.496C175.764 422.6 175.655 422.727 175.548 422.878C175.442 423.029 175.361 423.202 175.308 423.398C175.254 423.594 175.239 423.813 175.261 424.055C175.286 424.293 175.371 424.554 175.518 424.838L175.729 425.248ZM187.683 417.388C187.803 417.62 187.881 417.841 187.918 418.053C187.955 418.265 187.96 418.467 187.934 418.658C187.909 418.846 187.858 419.022 187.782 419.187C187.706 419.352 187.614 419.503 187.507 419.641C187.401 419.775 187.284 419.893 187.156 419.995C187.03 420.097 186.905 420.18 186.78 420.244L189.846 420.98L188.277 421.791L185.214 421.053L184.484 421.431L183.96 420.415L186.255 419.229C186.378 419.153 186.48 419.067 186.563 418.971C186.646 418.872 186.707 418.766 186.745 418.655C186.785 418.541 186.8 418.423 186.789 418.3C186.777 418.175 186.737 418.045 186.668 417.913L186.337 417.272C186.308 417.215 186.278 417.176 186.247 417.156C186.218 417.131 186.189 417.118 186.158 417.118C186.13 417.113 186.101 417.116 186.074 417.127C186.049 417.136 186.026 417.146 186.006 417.157L182.656 418.888L185.025 423.471L184.01 423.996L181.381 418.909C181.344 418.839 181.323 418.766 181.317 418.69C181.311 418.614 181.317 418.541 181.338 418.471C181.36 418.4 181.396 418.336 181.445 418.277C181.494 418.219 181.555 418.171 181.628 418.133L185.481 416.142C185.708 416.025 185.92 415.968 186.12 415.97C186.317 415.97 186.497 416.008 186.658 416.083C186.82 416.154 186.959 416.251 187.074 416.372C187.192 416.492 187.284 416.615 187.348 416.74L187.683 417.388ZM194.546 412.743L192.309 413.899L194.678 418.482L193.663 419.007L191.294 414.424L189.053 415.582L188.529 414.567L194.022 411.728L194.546 412.743Z" fill="#11056B"/>
<path d="M233.673 371.247C233.737 371.372 233.784 371.517 233.814 371.683C233.846 371.848 233.845 372.017 233.809 372.19C233.776 372.362 233.703 372.53 233.59 372.694C233.475 372.856 233.305 372.995 233.078 373.112L229.225 375.103C229.152 375.141 229.078 375.163 229.002 375.169C228.926 375.176 228.853 375.169 228.784 375.149C228.715 375.125 228.652 375.088 228.593 375.039C228.535 374.99 228.487 374.929 228.449 374.856L226.085 370.281C226.048 370.21 226.027 370.137 226.021 370.061C226.015 369.986 226.022 369.913 226.042 369.843C226.064 369.772 226.1 369.707 226.149 369.649C226.198 369.591 226.259 369.543 226.332 369.505L229.728 367.75C229.853 367.685 229.999 367.638 230.165 367.608C230.331 367.579 230.501 367.582 230.674 367.617C230.849 367.649 231.017 367.722 231.178 367.837C231.342 367.95 231.483 368.119 231.6 368.346L231.698 368.537C231.791 368.717 231.862 368.926 231.909 369.165C231.956 369.402 231.96 369.647 231.923 369.9C232.074 369.911 232.224 369.941 232.374 369.988C232.527 370.035 232.675 370.104 232.817 370.195C232.96 370.286 233.096 370.402 233.225 370.543C233.354 370.684 233.47 370.854 233.572 371.052L233.673 371.247ZM232.557 371.576C232.488 371.443 232.406 371.336 232.311 371.253C232.214 371.168 232.108 371.107 231.994 371.071C231.879 371.034 231.759 371.024 231.632 371.04C231.503 371.054 231.373 371.095 231.24 371.163L228.952 372.346L228.424 371.323L230.255 370.376C230.388 370.308 230.497 370.226 230.584 370.132C230.669 370.035 230.73 369.93 230.766 369.815C230.803 369.701 230.814 369.581 230.799 369.457C230.785 369.329 230.744 369.198 230.676 369.066L230.577 368.874C230.501 368.729 230.394 368.692 230.253 368.765L227.36 370.26L229.204 373.828L232.554 372.097C232.572 372.088 232.593 372.075 232.618 372.059C232.643 372.043 232.662 372.023 232.676 371.999C232.69 371.975 232.697 371.944 232.697 371.904C232.696 371.865 232.682 371.818 232.654 371.763L232.557 371.576Z" fill="#11056B"/>
<path d="M282.214 347.525L281.199 348.049L280.489 346.675L276.921 348.519L277.631 349.894L276.616 350.418L275.17 347.619C274.958 347.21 274.834 346.798 274.797 346.382C274.76 345.966 274.803 345.569 274.925 345.193C275.047 344.817 275.243 344.471 275.512 344.157C275.782 343.843 276.119 343.582 276.522 343.373L278.81 342.191C278.88 342.155 278.953 342.133 279.029 342.127C279.105 342.121 279.178 342.129 279.25 342.152C279.321 342.174 279.385 342.21 279.444 342.259C279.502 342.308 279.549 342.368 279.586 342.438L282.214 347.525ZM276.396 347.504L279.965 345.66L278.831 343.466L277.047 344.388C277.015 344.404 276.952 344.444 276.856 344.507C276.761 344.566 276.656 344.648 276.542 344.753C276.431 344.856 276.322 344.984 276.215 345.134C276.109 345.285 276.028 345.459 275.975 345.655C275.921 345.85 275.906 346.07 275.928 346.312C275.953 346.55 276.038 346.811 276.185 347.094L276.396 347.504Z" fill="#11056B"/>
<defs>
<filter id="filter0_d_1_6" x="0" y="0" width="334" height="536" filterUnits="userSpaceOnUse" color-interpolation-filters="sRGB">
<feFlood flood-opacity="0" result="BackgroundImageFix"/>
<feColorMatrix in="SourceAlpha" type="matrix" values="0 0 0 0 0 0 0 0 0 0 0 0 0 0 0 0 0 0 127 0" result="hardAlpha"/>
<feOffset dx="14" dy="18"/>
<feGaussianBlur stdDeviation="9"/>
<feComposite in2="hardAlpha" operator="out"/>
<feColorMatrix type="matrix" values="0 0 0 0 0 0 0 0 0 0 0 0 0 0 0 0 0 0 0.25 0"/>
<feBlend mode="normal" in2="BackgroundImageFix" result="effect1_dropShadow_1_6"/>
<feBlend mode="normal" in="SourceGraphic" in2="effect1_dropShadow_1_6" result="shape"/>
</filter>
<filter id="filter1_ii_1_6" x="92.2905" y="392.29" width="45.1918" height="37.5153" filterUnits="userSpaceOnUse" color-interpolation-filters="sRGB">
<feFlood flood-opacity="0" result="BackgroundImageFix"/>
<feBlend mode="normal" in="SourceGraphic" in2="BackgroundImageFix" result="shape"/>
<feColorMatrix in="SourceAlpha" type="matrix" values="0 0 0 0 0 0 0 0 0 0 0 0 0 0 0 0 0 0 127 0" result="hardAlpha"/>
<feOffset dy="3"/>
<feGaussianBlur stdDeviation="2.7"/>
<feComposite in2="hardAlpha" operator="arithmetic" k2="-1" k3="1"/>
<feColorMatrix type="matrix" values="0 0 0 0 0 0 0 0 0 0 0 0 0 0 0 0 0 0 0.47 0"/>
<feBlend mode="normal" in2="shape" result="effect1_innerShadow_1_6"/>
<feColorMatrix in="SourceAlpha" type="matrix" values="0 0 0 0 0 0 0 0 0 0 0 0 0 0 0 0 0 0 127 0" result="hardAlpha"/>
<feOffset dy="-2"/>
<feGaussianBlur stdDeviation="1"/>
<feComposite in2="hardAlpha" operator="arithmetic" k2="-1" k3="1"/>
<feColorMatrix type="matrix" values="0 0 0 0 1 0 0 0 0 1 0 0 0 0 1 0 0 0 0.43 0"/>
<feBlend mode="normal" in2="effect1_innerShadow_1_6" result="effect2_innerShadow_1_6"/>
</filter>
<filter id="filter2_ii_1_6" x="146.29" y="392.29" width="45.1918" height="37.5153" filterUnits="userSpaceOnUse" color-interpolation-filters="sRGB">
<feFlood flood-opacity="0" result="BackgroundImageFix"/>
<feBlend mode="normal" in="SourceGraphic" in2="BackgroundImageFix" result="shape"/>
<feColorMatrix in="SourceAlpha" type="matrix" values="0 0 0 0 0 0 0 0 0 0 0 0 0 0 0 0 0 0 127 0" result="hardAlpha"/>
<feOffset dy="3"/>
<feGaussianBlur stdDeviation="2.7"/>
<feComposite in2="hardAlpha" operator="arithmetic" k2="-1" k3="1"/>
<feColorMatrix type="matrix" values="0 0 0 0 0 0 0 0 0 0 0 0 0 0 0 0 0 0 0.47 0"/>
<feBlend mode="normal" in2="shape" result="effect1_innerShadow_1_6"/>
<feColorMatrix in="SourceAlpha" type="matrix" values="0 0 0 0 0 0 0 0 0 0 0 0 0 0 0 0 0 0 127 0" result="hardAlpha"/>
<feOffset dy="-2"/>
<feGaussianBlur stdDeviation="1"/>
<feComposite in2="hardAlpha" operator="arithmetic" k2="-1" k3="1"/>
<feColorMatrix type="matrix" values="0 0 0 0 1 0 0 0 0 1 0 0 0 0 1 0 0 0 0.43 0"/>
<feBlend mode="normal" in2="effect1_innerShadow_1_6" result="effect2_innerShadow_1_6"/>
</filter>
<linearGradient id="paint0_linear_1_6" x1="65.5" y1="289" x2="65.5" y2="384" gradientUnits="userSpaceOnUse">
<stop stop-color="#DED0C7"/>
<stop offset="1" stop-color="#EDE3D9"/>
</linearGradient>
<linearGradient id="paint1_linear_1_6" x1="113.313" y1="414.99" x2="113.874" y2="423.723" gradientUnits="userSpaceOnUse">
<stop stop-color="#93979A"/>
<stop offset="1" stop-color="#585659"/>
</linearGradient>
<linearGradient id="paint2_linear_1_6" x1="167.313" y1="414.99" x2="167.644" y2="424.168" gradientUnits="userSpaceOnUse">
<stop stop-color="#93979A"/>
<stop offset="1" stop-color="#585659"/>
</linearGradient>
<linearGradient id="paint3_linear_1_6" x1="220.388" y1="332.51" x2="222.605" y2="379.225" gradientUnits="userSpaceOnUse">
<stop stop-color="#D0C1B9"/>
<stop offset="1" stop-color="#FBF7EC"/>
</linearGradient>
<linearGradient id="paint4_linear_1_6" x1="215" y1="324" x2="215" y2="360" gradientUnits="userSpaceOnUse">
<stop stop-color="#B9156E"/>
<stop offset="1" stop-color="#8F0048"/>
</linearGradient>
<linearGradient id="paint5_linear_1_6" x1="264" y1="300" x2="264" y2="336" gradientUnits="userSpaceOnUse">
<stop stop-color="#B9156E"/>
<stop offset="1" stop-color="#8F0048"/>
</linearGradient>
</defs>
</svg>
