<svg width="373" height="584" viewBox="0 0 373 584" fill="none" xmlns="http://www.w3.org/2000/svg">
<g filter="url(#filter0_d_1_6)">
<path d="M35 54C35 47.3726 40.3726 42 47 42H329C335.627 42 341 47.3726 341 54V457C341 503.944 302.944 542 256 542H47C40.3726 542 35 536.627 35 530V54Z" fill="#E6D9D0"/>
<path d="M47 42.5H329C335.351 42.5 340.5 47.6487 340.5 54V457C340.5 503.668 302.668 541.5 256 541.5H47C40.6487 541.5 35.5 536.351 35.5 530V54C35.5 47.6487 40.6487 42.5 47 42.5Z" stroke="black"/>
</g>
<path d="M67 85.5H311C317.351 85.5 322.5 90.6487 322.5 97V230C322.5 262.861 295.861 289.5 263 289.5H67C60.6487 289.5 55.5 284.351 55.5 278V97C55.5 90.6487 60.6487 85.5 67 85.5Z" fill="#6A6581" stroke="black"/>
<path d="M340.5 69H35V64H59.6667V42H64.303V64H313.242V42.5H317.879V64H340.5V69Z" stroke="black"/>
<line x1="67" y1="95.25" x2="138" y2="95.25" stroke="#641956" stroke-width="1.5"/>
<line x1="67" y1="100" x2="138" y2="100" stroke="#07023C" stroke-width="2"/>
<path d="M143.632 100V94.7227H144.74C145.271 94.7227 145.69 94.7751 145.998 94.8799C146.328 94.9824 146.628 95.1567 146.896 95.4028C147.441 95.8996 147.713 96.5524 147.713 97.3613C147.713 98.1725 147.43 98.8288 146.862 99.3301C146.577 99.5807 146.279 99.755 145.967 99.853C145.675 99.951 145.262 100 144.726 100H143.632ZM144.429 99.2515H144.788C145.145 99.2515 145.443 99.2139 145.68 99.1387C145.917 99.0589 146.131 98.9325 146.322 98.7593C146.714 98.4015 146.91 97.9355 146.91 97.3613C146.91 96.7826 146.716 96.3132 146.329 95.9531C145.98 95.6318 145.467 95.4712 144.788 95.4712H144.429V99.2515ZM148.805 97.3374C148.805 96.5946 149.077 95.9565 149.622 95.4233C150.164 94.8901 150.816 94.6235 151.577 94.6235C152.329 94.6235 152.974 94.8924 153.512 95.4302C154.052 95.9679 154.322 96.6139 154.322 97.3682C154.322 98.127 154.051 98.7707 153.508 99.2993C152.964 99.8302 152.306 100.096 151.536 100.096C150.855 100.096 150.243 99.8599 149.701 99.3882C149.104 98.8664 148.805 98.1828 148.805 97.3374ZM149.608 97.3477C149.608 97.931 149.804 98.4106 150.196 98.7866C150.586 99.1626 151.036 99.3506 151.546 99.3506C152.1 99.3506 152.567 99.1592 152.948 98.7764C153.328 98.389 153.518 97.9173 153.518 97.3613C153.518 96.7985 153.33 96.3268 152.954 95.9463C152.581 95.5635 152.118 95.3721 151.567 95.3721C151.018 95.3721 150.554 95.5635 150.176 95.9463C149.797 96.3245 149.608 96.7917 149.608 97.3477ZM156.938 95.4712V100H156.141V95.4712H154.928V94.7227H158.148V95.4712H156.938ZM161.534 100L162.645 94.3262L164.457 98.4277L166.333 94.3262L167.331 100H166.514L166.005 96.8145L164.443 100.243L162.925 96.811L162.358 100H161.534ZM171.902 98.7183H169.643L169.055 100H168.197L170.809 94.3911L173.328 100H172.456L171.902 98.7183ZM171.578 97.9697L170.795 96.1753L169.975 97.9697H171.578ZM175.503 95.4712V100H174.706V95.4712H173.493V94.7227H176.713V95.4712H175.503ZM179.561 97.751L181.195 100H180.221L178.714 97.8398H178.57V100H177.774V94.7227H178.707C179.404 94.7227 179.908 94.8537 180.218 95.1157C180.559 95.4074 180.73 95.7925 180.73 96.271C180.73 96.6447 180.623 96.966 180.409 97.2349C180.195 97.5037 179.912 97.6758 179.561 97.751ZM178.57 97.146H178.823C179.577 97.146 179.954 96.8577 179.954 96.2812C179.954 95.7412 179.588 95.4712 178.854 95.4712H178.57V97.146ZM183.138 94.7227V100H182.342V94.7227H183.138ZM185.86 97.2417L184.407 94.7227H185.313L186.321 96.5103L187.381 94.7227H188.294L186.773 97.2417L188.369 100H187.477L186.308 97.98L185.105 100H184.202L185.86 97.2417ZM192.203 94.7227L193.577 98.25L195.013 94.4663L196.387 98.25L197.846 94.7227H198.711L196.352 100.335L194.996 96.5957L193.58 100.338L191.338 94.7227H192.203ZM200.513 94.7227V100H199.717V94.7227H200.513ZM203.588 95.4712V100H202.791V95.4712H201.578V94.7227H204.798V95.4712H203.588ZM206.655 96.7871H208.931V94.7227H209.728V100H208.931V97.5356H206.655V100H205.858V94.7227H206.655V96.7871ZM216.836 95.5088L216.19 95.8916C216.07 95.682 215.954 95.5452 215.845 95.4814C215.731 95.4085 215.584 95.3721 215.404 95.3721C215.183 95.3721 215 95.4347 214.854 95.5601C214.708 95.6831 214.635 95.8381 214.635 96.0249C214.635 96.2824 214.827 96.4897 215.209 96.647L215.736 96.8623C216.164 97.0355 216.477 97.2474 216.676 97.498C216.874 97.7464 216.973 98.0518 216.973 98.4141C216.973 98.8994 216.811 99.3005 216.488 99.6172C216.162 99.9362 215.757 100.096 215.274 100.096C214.816 100.096 214.438 99.9601 214.14 99.689C213.846 99.4178 213.662 99.0361 213.589 98.5439L214.396 98.3662C214.432 98.6761 214.496 98.8903 214.587 99.0088C214.751 99.2367 214.991 99.3506 215.305 99.3506C215.553 99.3506 215.76 99.2674 215.924 99.1011C216.088 98.9347 216.17 98.724 216.17 98.4688C216.17 98.3662 216.155 98.2728 216.125 98.1885C216.098 98.1019 216.054 98.0233 215.992 97.9526C215.933 97.8797 215.855 97.8125 215.76 97.751C215.664 97.6872 215.55 97.6268 215.418 97.5698L214.909 97.3579C214.186 97.0526 213.825 96.606 213.825 96.0181C213.825 95.6216 213.977 95.29 214.28 95.0234C214.583 94.7546 214.96 94.6201 215.411 94.6201C216.019 94.6201 216.495 94.9163 216.836 95.5088ZM219.842 95.4712V100H219.046V95.4712H217.832V94.7227H221.052V95.4712H219.842ZM225.025 95.4712H222.909V96.7393H224.964V97.4878H222.909V99.2515H225.025V100H222.113V94.7227H225.025V95.4712ZM228.209 97.751L229.842 100H228.868L227.361 97.8398H227.217V100H226.421V94.7227H227.354C228.051 94.7227 228.555 94.8537 228.865 95.1157C229.207 95.4074 229.378 95.7925 229.378 96.271C229.378 96.6447 229.27 96.966 229.056 97.2349C228.842 97.5037 228.56 97.6758 228.209 97.751ZM227.217 97.146H227.47C228.225 97.146 228.602 96.8577 228.602 96.2812C228.602 95.7412 228.235 95.4712 227.501 95.4712H227.217V97.146ZM231.785 94.7227V100H230.989V94.7227H231.785ZM233.14 97.3374C233.14 96.5946 233.412 95.9565 233.957 95.4233C234.499 94.8901 235.151 94.6235 235.912 94.6235C236.664 94.6235 237.309 94.8924 237.847 95.4302C238.387 95.9679 238.657 96.6139 238.657 97.3682C238.657 98.127 238.385 98.7707 237.843 99.2993C237.299 99.8302 236.641 100.096 235.871 100.096C235.19 100.096 234.578 99.8599 234.036 99.3882C233.439 98.8664 233.14 98.1828 233.14 97.3374ZM233.943 97.3477C233.943 97.931 234.139 98.4106 234.531 98.7866C234.921 99.1626 235.371 99.3506 235.881 99.3506C236.435 99.3506 236.902 99.1592 237.283 98.7764C237.663 98.389 237.853 97.9173 237.853 97.3613C237.853 96.7985 237.665 96.3268 237.289 95.9463C236.916 95.5635 236.453 95.3721 235.902 95.3721C235.353 95.3721 234.889 95.5635 234.511 95.9463C234.132 96.3245 233.943 96.7917 233.943 97.3477ZM245.502 95.5088L244.856 95.8916C244.735 95.682 244.62 95.5452 244.511 95.4814C244.397 95.4085 244.25 95.3721 244.07 95.3721C243.849 95.3721 243.666 95.4347 243.52 95.5601C243.374 95.6831 243.301 95.8381 243.301 96.0249C243.301 96.2824 243.492 96.4897 243.875 96.647L244.402 96.8623C244.83 97.0355 245.143 97.2474 245.342 97.498C245.54 97.7464 245.639 98.0518 245.639 98.4141C245.639 98.8994 245.477 99.3005 245.154 99.6172C244.828 99.9362 244.423 100.096 243.94 100.096C243.482 100.096 243.104 99.9601 242.805 99.689C242.511 99.4178 242.328 99.0361 242.255 98.5439L243.062 98.3662C243.098 98.6761 243.162 98.8903 243.253 99.0088C243.417 99.2367 243.656 99.3506 243.971 99.3506C244.219 99.3506 244.425 99.2674 244.59 99.1011C244.754 98.9347 244.836 98.724 244.836 98.4688C244.836 98.3662 244.821 98.2728 244.791 98.1885C244.764 98.1019 244.719 98.0233 244.658 97.9526C244.599 97.8797 244.521 97.8125 244.425 97.751C244.33 97.6872 244.216 97.6268 244.084 97.5698L243.574 97.3579C242.852 97.0526 242.491 96.606 242.491 96.0181C242.491 95.6216 242.642 95.29 242.946 95.0234C243.249 94.7546 243.626 94.6201 244.077 94.6201C244.685 94.6201 245.16 94.9163 245.502 95.5088ZM246.686 97.3374C246.686 96.5946 246.958 95.9565 247.503 95.4233C248.045 94.8901 248.697 94.6235 249.458 94.6235C250.21 94.6235 250.855 94.8924 251.393 95.4302C251.933 95.9679 252.203 96.6139 252.203 97.3682C252.203 98.127 251.932 98.7707 251.389 99.2993C250.845 99.8302 250.187 100.096 249.417 100.096C248.736 100.096 248.124 99.8599 247.582 99.3882C246.985 98.8664 246.686 98.1828 246.686 97.3374ZM247.489 97.3477C247.489 97.931 247.685 98.4106 248.077 98.7866C248.467 99.1626 248.917 99.3506 249.427 99.3506C249.981 99.3506 250.448 99.1592 250.829 98.7764C251.209 98.389 251.4 97.9173 251.4 97.3613C251.4 96.7985 251.212 96.3268 250.836 95.9463C250.462 95.5635 249.999 95.3721 249.448 95.3721C248.899 95.3721 248.435 95.5635 248.057 95.9463C247.678 96.3245 247.489 96.7917 247.489 97.3477ZM254.351 94.7227V97.9014C254.351 98.3548 254.425 98.6864 254.573 98.896C254.794 99.1991 255.105 99.3506 255.506 99.3506C255.909 99.3506 256.221 99.1991 256.442 98.896C256.59 98.6932 256.665 98.3617 256.665 97.9014V94.7227H257.461V98.1201C257.461 98.6761 257.288 99.1341 256.941 99.4941C256.552 99.8952 256.073 100.096 255.506 100.096C254.938 100.096 254.461 99.8952 254.074 99.4941C253.727 99.1341 253.554 98.6761 253.554 98.1201V94.7227H254.351ZM259.079 100V94.3638L262.928 98.3901V94.7227H263.724V100.321L259.875 96.3052V100H259.079ZM265.342 100V94.7227H266.45C266.98 94.7227 267.4 94.7751 267.707 94.8799C268.038 94.9824 268.337 95.1567 268.606 95.4028C269.151 95.8996 269.423 96.5524 269.423 97.3613C269.423 98.1725 269.139 98.8288 268.572 99.3301C268.287 99.5807 267.989 99.755 267.677 99.853C267.385 99.951 266.971 100 266.436 100H265.342ZM266.138 99.2515H266.497C266.855 99.2515 267.152 99.2139 267.389 99.1387C267.626 99.0589 267.841 98.9325 268.032 98.7593C268.424 98.4015 268.62 97.9355 268.62 97.3613C268.62 96.7826 268.426 96.3132 268.039 95.9531C267.69 95.6318 267.176 95.4712 266.497 95.4712H266.138V99.2515Z" fill="#B2B0C8"/>
<line x1="273" y1="95.25" x2="308" y2="95.25" stroke="#641956" stroke-width="1.5"/>
<line x1="273" y1="100" x2="308" y2="100" stroke="#07023C" stroke-width="2"/>
<circle cx="107.5" cy="385.5" r="47.5" fill="url(#paint0_linear_1_6)"/>
<rect x="69" y="372" width="76" height="27" rx="4" fill="#030512"/>
<rect x="120.5" y="347.5" width="76" height="27" rx="4" transform="rotate(90 120.5 347.5)" fill="#030512"/>
<g filter="url(#filter1_ii_1_6)">
<rect x="114" y="457.264" width="48.4861" height="18.9479" rx="9.47393" transform="rotate(-27.3345 114 457.264)" fill="#E6D9D0"/>
</g>
<g filter="url(#filter2_ii_1_6)">
<rect x="166" y="457.264" width="48.4861" height="18.9479" rx="9.47393" transform="rotate(-27.3345 166 457.264)" fill="#E6D9D0"/>
</g>
<rect x="122.674" y="459.204" width="34.8195" height="7.68601" rx="3.84301" transform="rotate(-27.3345 122.674 459.204)" fill="url(#paint1_linear_1_6)" stroke="black"/>
<rect x="174.674" y="459.204" width="34.8195" height="7.68601" rx="3.84301" transform="rotate(-27.3345 174.674 459.204)" fill="url(#paint2_linear_1_6)" stroke="black"/>
<rect x="207" y="372.749" width="108.772" height="50.9896" rx="25.4948" transform="rotate(-26.039 207 372.749)" fill="url(#paint3_linear_1_6)"/>
<circle cx="242" cy="385" r="17.5" fill="url(#paint4_linear_1_6)" stroke="black"/>
<circle cx="291" cy="361" r="17.5" fill="url(#paint5_linear_1_6)" stroke="black"/>
<rect x="220.887" y="477.665" width="47.2686" height="5.76337" rx="2.88168" transform="rotate(64.9775 220.887 477.665)" fill="#AC9B93" stroke="black"/>
<rect x="234.887" y="470.665" width="47.2686" height="5.76337" rx="2.88168" transform="rotate(64.9775 234.887 470.665)" fill="#AC9B93" stroke="black"/>
<rect x="249.887" y="463.665" width="47.2686" height="5.76337" rx="2.88168" transform="rotate(64.9775 249.887 463.665)" fill="#AC9B93" stroke="black"/>
<rect x="263.887" y="456.665" width="47.2686" height="5.76337" rx="2.88168" transform="rotate(64.9775 263.887 456.665)" fill="#AC9B93" stroke="black"/>
<rect x="277.887" y="449.665" width="47.2686" height="5.76337" rx="2.88168" transform="rotate(64.9775 277.887 449.665)" fill="#AC9B93" stroke="black"/>
<rect x="292.887" y="443.665" width="47.2686" height="5.76337" rx="2.88168" transform="rotate(64.9775 292.887 443.665)" fill="#AC9B93" stroke="black"/>
<path d="M58.025 305.512H58.74C59.532 305.512 59.928 305.167 59.928 304.478C59.928 303.789 59.532 303.444 58.74 303.444H58.025V305.512ZM58.025 310H55.869V301.706H59.301C60.2323 301.706 60.9437 301.948 61.435 302.432C61.9337 302.916 62.183 303.598 62.183 304.478C62.183 305.358 61.9337 306.04 61.435 306.524C60.9437 307.008 60.2323 307.25 59.301 307.25H58.025V310ZM67.1332 306.359C67.0672 306.08 66.9315 305.857 66.7262 305.688C66.5208 305.519 66.2715 305.435 65.9782 305.435C65.6702 305.435 65.4172 305.516 65.2192 305.677C65.0285 305.838 64.9075 306.066 64.8562 306.359H67.1332ZM64.8012 307.514C64.8012 308.372 65.2045 308.801 66.0112 308.801C66.4438 308.801 66.7702 308.625 66.9902 308.273H68.9152C68.5265 309.564 67.5548 310.209 66.0002 310.209C65.5235 310.209 65.0872 310.139 64.6912 310C64.2952 309.853 63.9542 309.648 63.6682 309.384C63.3895 309.12 63.1732 308.805 63.0192 308.438C62.8652 308.071 62.7882 307.661 62.7882 307.206C62.7882 306.737 62.8615 306.315 63.0082 305.941C63.1548 305.56 63.3638 305.237 63.6352 304.973C63.9065 304.709 64.2328 304.507 64.6142 304.368C65.0028 304.221 65.4392 304.148 65.9232 304.148C66.3998 304.148 66.8288 304.221 67.2102 304.368C67.5915 304.507 67.9142 304.713 68.1782 304.984C68.4422 305.255 68.6438 305.589 68.7832 305.985C68.9225 306.374 68.9922 306.814 68.9922 307.305V307.514H64.8012ZM71.9782 307.162C71.9782 307.345 72.0112 307.518 72.0772 307.679C72.1432 307.833 72.2312 307.969 72.3412 308.086C72.4586 308.203 72.5942 308.295 72.7482 308.361C72.9096 308.427 73.0819 308.46 73.2652 308.46C73.4412 308.46 73.6062 308.427 73.7602 308.361C73.9216 308.295 74.0572 308.203 74.1672 308.086C74.2846 307.969 74.3762 307.833 74.4422 307.679C74.5156 307.525 74.5522 307.36 74.5522 307.184C74.5522 307.008 74.5156 306.843 74.4422 306.689C74.3762 306.528 74.2846 306.388 74.1672 306.271C74.0572 306.154 73.9216 306.062 73.7602 305.996C73.6062 305.93 73.4412 305.897 73.2652 305.897C73.0819 305.897 72.9096 305.93 72.7482 305.996C72.5942 306.062 72.4586 306.154 72.3412 306.271C72.2312 306.388 72.1432 306.524 72.0772 306.678C72.0112 306.825 71.9782 306.986 71.9782 307.162ZM74.4862 304.357H76.4882V310H74.4862V309.373C74.0609 309.908 73.4852 310.176 72.7592 310.176C72.3486 310.176 71.9709 310.103 71.6262 309.956C71.2816 309.802 70.9809 309.589 70.7242 309.318C70.4676 309.047 70.2659 308.728 70.1192 308.361C69.9799 307.994 69.9102 307.595 69.9102 307.162C69.9102 306.759 69.9799 306.377 70.1192 306.018C70.2586 305.651 70.4529 305.332 70.7022 305.061C70.9516 304.79 71.2486 304.577 71.5932 304.423C71.9379 304.262 72.3192 304.181 72.7372 304.181C73.4412 304.181 74.0242 304.427 74.4862 304.918V304.357ZM77.8431 304.357H79.8341V305.072C80.1055 304.742 80.3805 304.522 80.6591 304.412C80.9378 304.295 81.2641 304.236 81.6381 304.236C82.0341 304.236 82.3715 304.302 82.6501 304.434C82.9361 304.559 83.1781 304.738 83.3761 304.973C83.5375 305.164 83.6475 305.376 83.7061 305.611C83.7648 305.846 83.7941 306.113 83.7941 306.414V310H81.8031V307.151C81.8031 306.872 81.7811 306.649 81.7371 306.48C81.7005 306.304 81.6308 306.165 81.5281 306.062C81.4401 305.974 81.3411 305.912 81.2311 305.875C81.1211 305.838 81.0038 305.82 80.8791 305.82C80.5418 305.82 80.2815 305.923 80.0981 306.128C79.9221 306.326 79.8341 306.612 79.8341 306.986V310H77.8431V304.357ZM87.1388 304.357V307.536C87.1388 308.233 87.4762 308.581 88.1508 308.581C88.8255 308.581 89.1628 308.233 89.1628 307.536V304.357H91.1538V307.921C91.1538 308.684 90.9008 309.256 90.3948 309.637C89.8962 310.018 89.1482 310.209 88.1508 310.209C87.1535 310.209 86.4018 310.018 85.8958 309.637C85.3972 309.256 85.1478 308.684 85.1478 307.921V304.357H87.1388ZM94.7282 306.018V310H92.7372V306.018H92.0772V304.357H92.7372V302.663H94.7282V304.357H95.8612V306.018H94.7282ZM100.834 305.358H105.113C105.113 305.798 105.094 306.198 105.058 306.557C105.021 306.916 104.948 307.25 104.838 307.558C104.684 307.991 104.475 308.376 104.211 308.713C103.947 309.043 103.635 309.322 103.276 309.549C102.924 309.769 102.535 309.938 102.11 310.055C101.684 310.172 101.237 310.231 100.768 310.231C100.122 310.231 99.5321 310.125 98.9967 309.912C98.4687 309.699 98.0141 309.402 97.6327 309.021C97.2514 308.632 96.9544 308.17 96.7417 307.635C96.5291 307.092 96.4227 306.495 96.4227 305.842C96.4227 305.197 96.5254 304.606 96.7307 304.071C96.9434 303.528 97.2404 303.066 97.6217 302.685C98.0104 302.304 98.4761 302.007 99.0187 301.794C99.5614 301.581 100.166 301.475 100.834 301.475C101.699 301.475 102.458 301.662 103.111 302.036C103.763 302.41 104.28 302.989 104.662 303.774L102.616 304.621C102.425 304.166 102.176 303.84 101.868 303.642C101.567 303.444 101.222 303.345 100.834 303.345C100.511 303.345 100.218 303.407 99.9537 303.532C99.6897 303.649 99.4624 303.822 99.2717 304.049C99.0884 304.269 98.9417 304.537 98.8317 304.852C98.7291 305.167 98.6777 305.519 98.6777 305.908C98.6777 306.26 98.7217 306.586 98.8097 306.887C98.9051 307.188 99.0444 307.448 99.2277 307.668C99.4111 307.888 99.6384 308.06 99.9097 308.185C100.181 308.302 100.496 308.361 100.856 308.361C101.068 308.361 101.274 308.339 101.472 308.295C101.67 308.244 101.846 308.167 102 308.064C102.161 307.954 102.293 307.815 102.396 307.646C102.498 307.477 102.568 307.272 102.605 307.03H100.834V305.358ZM108.631 308.328H109.104C109.647 308.328 110.036 308.258 110.27 308.119C110.505 307.98 110.622 307.756 110.622 307.448C110.622 307.14 110.505 306.916 110.27 306.777C110.036 306.638 109.647 306.568 109.104 306.568H108.631V308.328ZM108.631 304.962H109.027C109.702 304.962 110.039 304.694 110.039 304.159C110.039 303.624 109.702 303.356 109.027 303.356H108.631V304.962ZM106.475 301.706H109.687C110.45 301.706 111.029 301.889 111.425 302.256C111.821 302.623 112.019 303.151 112.019 303.84C112.019 304.258 111.942 304.606 111.788 304.885C111.642 305.156 111.414 305.387 111.106 305.578C111.414 305.637 111.675 305.728 111.887 305.853C112.107 305.97 112.283 306.117 112.415 306.293C112.555 306.469 112.654 306.667 112.712 306.887C112.771 307.107 112.8 307.342 112.8 307.591C112.8 307.98 112.731 308.324 112.591 308.625C112.459 308.926 112.269 309.179 112.019 309.384C111.777 309.589 111.48 309.743 111.128 309.846C110.776 309.949 110.38 310 109.94 310H106.475V301.706ZM125.911 303.689H131.342C131.207 305.23 130.838 306.493 130.235 307.478C129.098 309.335 127.411 310.264 125.172 310.264C123.286 310.264 121.733 309.628 120.514 308.356C119.295 307.085 118.686 305.462 118.686 303.487C118.686 302.415 118.894 301.369 119.31 300.35C119.72 299.354 120.294 298.521 121.033 297.854C122.269 296.723 123.801 296.157 125.629 296.157C127.868 296.157 129.722 297.068 131.193 298.891L129.883 300.227C128.776 298.773 127.346 298.047 125.594 298.047C124.147 298.047 122.972 298.548 122.07 299.55C121.162 300.563 120.707 301.861 120.707 303.443C120.707 304.896 121.132 306.083 121.982 307.003C122.831 307.923 123.936 308.383 125.295 308.383C126.256 308.383 127.077 308.119 127.756 307.592C128.43 307.064 128.864 306.344 129.057 305.43H125.691L125.911 303.689ZM136.171 306.81L134.519 310H132.33L139.836 295.463L144.521 310H142.42L141.436 306.81H136.171ZM137.041 305.069H140.873L139.414 300.244L137.041 305.069ZM160.81 295.146L161.926 310H160.01L159.404 301.352L154.148 310.949L151.239 301.352L148.532 310H146.475L151.169 295.472L154.605 306.563L160.81 295.146ZM174.059 296.43L173.83 298.302H168.847L168.416 301.817H173.4L173.189 303.558H168.205L167.643 308.128H172.626L172.389 310H165.402L167.071 296.43H174.059ZM184.006 296.43H186.52C187.311 296.43 187.953 296.515 188.445 296.685C188.925 296.854 189.332 297.142 189.666 297.546C190.2 298.185 190.466 298.955 190.466 299.857C190.466 301.229 189.807 302.274 188.489 302.995C190.088 303.394 190.888 304.396 190.888 306.001C190.888 306.663 190.747 307.287 190.466 307.873C190.197 308.453 189.816 308.922 189.324 309.279C188.931 309.566 188.5 309.757 188.032 309.851C187.786 309.897 187.49 309.936 187.144 309.965C186.798 309.988 186.388 310 185.913 310H182.336L184.006 296.43ZM185.782 298.302L185.289 302.362H185.861C187.583 302.362 188.445 301.56 188.445 299.954C188.445 298.853 187.788 298.302 186.476 298.302H185.782ZM185.087 303.971L184.578 308.128H185.931C186.939 308.128 187.63 308.002 188.005 307.75C188.579 307.369 188.867 306.736 188.867 305.852C188.867 305.518 188.817 305.233 188.717 304.999C188.623 304.759 188.474 304.562 188.269 304.41C188.064 304.258 187.797 304.146 187.469 304.076C187.147 304.006 186.757 303.971 186.3 303.971H185.087ZM207.934 302.951C207.934 304.498 207.523 305.901 206.703 307.161C206.053 308.151 205.203 308.916 204.154 309.455C203.105 309.994 201.945 310.264 200.674 310.264C198.641 310.264 196.982 309.616 195.699 308.321C194.416 307.021 193.774 305.339 193.774 303.276C193.774 301.22 194.454 299.521 195.813 298.179C197.179 296.831 198.901 296.157 200.981 296.157C203.062 296.157 204.74 296.781 206.018 298.029C207.295 299.271 207.934 300.912 207.934 302.951ZM205.912 302.934C205.912 301.451 205.473 300.265 204.594 299.374C203.715 298.489 202.534 298.047 201.052 298.047C199.563 298.047 198.312 298.545 197.299 299.541C196.297 300.537 195.796 301.782 195.796 303.276C195.796 304.753 196.262 305.975 197.193 306.941C198.125 307.902 199.303 308.383 200.727 308.383C202.209 308.383 203.442 307.864 204.427 306.827C205.417 305.802 205.912 304.504 205.912 302.934ZM215.162 303.927L214.415 310H212.402L213.175 303.786L209.651 296.43H211.813L214.318 301.826L217.878 296.43H220.189L215.162 303.927Z" fill="#11056B"/>
<path d="M135.25 477.464C135.353 477.664 135.421 477.859 135.452 478.047C135.485 478.231 135.491 478.406 135.471 478.572C135.451 478.737 135.407 478.892 135.34 479.035C135.272 479.179 135.193 479.309 135.101 479.426C135.01 479.542 134.908 479.646 134.797 479.736C134.688 479.826 134.579 479.898 134.469 479.955L130.554 481.979L130.029 480.964L133.945 478.94C134.14 478.839 134.261 478.704 134.309 478.534C134.359 478.363 134.334 478.181 134.235 477.989C134.186 477.895 134.128 477.816 134.059 477.753C133.99 477.69 133.913 477.644 133.829 477.615C133.747 477.584 133.659 477.574 133.565 477.583C133.473 477.591 133.381 477.619 133.287 477.667L130.952 478.874C130.789 478.958 130.597 479.021 130.377 479.062C130.156 479.101 129.93 479.097 129.699 479.052C129.47 479.005 129.247 478.904 129.029 478.75C128.813 478.594 128.626 478.364 128.469 478.06C128.312 477.755 128.233 477.471 128.232 477.208C128.232 476.941 128.279 476.7 128.373 476.487C128.469 476.269 128.597 476.083 128.757 475.927C128.916 475.769 129.078 475.648 129.242 475.563L132.697 473.778L133.221 474.793L129.766 476.578C129.574 476.678 129.453 476.814 129.404 476.988C129.358 477.16 129.385 477.343 129.484 477.535C129.585 477.73 129.718 477.858 129.884 477.917C130.051 477.972 130.231 477.95 130.424 477.851L132.758 476.644L132.766 476.64C132.877 476.586 133.001 476.542 133.138 476.508C133.274 476.47 133.416 476.449 133.566 476.445C133.717 476.439 133.871 476.452 134.026 476.484C134.18 476.513 134.33 476.568 134.476 476.647C134.625 476.725 134.766 476.83 134.897 476.964C135.029 477.097 135.146 477.264 135.25 477.464ZM140.925 473.72L137.72 475.376L137.191 474.354L140.396 472.697L140.925 473.72ZM142.564 475.772L138.902 477.664C138.761 477.737 138.595 477.791 138.403 477.828C138.211 477.865 138.014 477.864 137.813 477.826C137.613 477.784 137.419 477.698 137.23 477.569C137.042 477.435 136.88 477.237 136.744 476.974L134.852 473.312C134.816 473.241 134.794 473.168 134.788 473.092C134.782 473.016 134.789 472.944 134.809 472.874C134.831 472.803 134.867 472.738 134.916 472.68C134.965 472.622 135.026 472.574 135.099 472.536L139.671 470.173L140.195 471.188L136.127 473.291L137.759 476.449C137.828 476.582 137.916 476.665 138.022 476.699C138.129 476.733 138.25 476.715 138.385 476.645L142.039 474.757L142.564 475.772ZM149.249 472.317L144.619 474.71C144.546 474.747 144.471 474.769 144.396 474.776C144.32 474.782 144.247 474.775 144.177 474.755C144.109 474.731 144.045 474.694 143.987 474.645C143.929 474.596 143.881 474.535 143.843 474.463L141.214 469.376L142.229 468.851L144.598 473.434L148.724 471.302L149.249 472.317ZM153.951 466.988L150.746 468.644L150.217 467.621L153.423 465.965L153.951 466.988ZM155.59 469.04L151.928 470.932C151.788 471.005 151.621 471.059 151.429 471.096C151.237 471.133 151.041 471.132 150.84 471.094C150.64 471.052 150.446 470.966 150.256 470.836C150.069 470.703 149.907 470.504 149.771 470.241L147.878 466.58C147.842 466.509 147.821 466.436 147.815 466.36C147.808 466.284 147.815 466.212 147.835 466.142C147.858 466.071 147.894 466.006 147.943 465.948C147.992 465.889 148.053 465.841 148.126 465.804L152.697 463.441L153.222 464.456L149.154 466.559L150.786 469.717C150.855 469.85 150.942 469.933 151.049 469.967C151.155 470.001 151.276 469.983 151.412 469.913L155.066 468.025L155.59 469.04ZM162.108 465.671L158.446 467.564C158.352 467.612 158.245 467.654 158.125 467.69C158.006 467.722 157.881 467.742 157.75 467.75C157.622 467.757 157.491 467.749 157.357 467.726C157.222 467.7 157.089 467.655 156.96 467.59C156.832 467.521 156.71 467.429 156.595 467.314C156.478 467.196 156.374 467.05 156.284 466.875L154.864 464.127C154.815 464.033 154.774 463.928 154.74 463.81C154.707 463.689 154.687 463.564 154.68 463.436C154.671 463.305 154.68 463.172 154.706 463.036C154.731 462.901 154.778 462.77 154.844 462.643C154.912 462.513 155.003 462.39 155.118 462.274C155.233 462.159 155.378 462.056 155.552 461.966L159.214 460.073L159.739 461.088L156.077 462.981C155.944 463.049 155.861 463.137 155.827 463.243C155.793 463.35 155.812 463.472 155.883 463.61L157.299 466.351C157.366 466.481 157.454 466.564 157.562 466.601C157.671 466.633 157.791 466.616 157.921 466.549L161.583 464.656L162.108 465.671ZM166.319 457.688L164.082 458.844L166.45 463.427L165.435 463.952L163.066 459.368L160.826 460.527L160.301 459.512L165.794 456.673L166.319 457.688Z" fill="#11056B"/>
<path d="M188.25 474.087C188.353 474.287 188.421 474.481 188.452 474.67C188.485 474.854 188.491 475.029 188.471 475.194C188.451 475.36 188.407 475.514 188.34 475.658C188.272 475.802 188.193 475.932 188.101 476.048C188.01 476.165 187.908 476.268 187.797 476.359C187.688 476.448 187.579 476.521 187.469 476.578L183.554 478.601L183.029 477.586L186.945 475.563C187.14 475.462 187.261 475.326 187.309 475.157C187.359 474.986 187.334 474.804 187.235 474.611C187.186 474.518 187.128 474.439 187.059 474.376C186.99 474.313 186.913 474.266 186.829 474.237C186.747 474.207 186.659 474.196 186.565 474.206C186.473 474.213 186.381 474.241 186.287 474.29L183.952 475.496C183.789 475.581 183.597 475.644 183.377 475.685C183.156 475.723 182.93 475.72 182.699 475.674C182.47 475.627 182.247 475.527 182.029 475.373C181.813 475.217 181.626 474.987 181.469 474.682C181.312 474.378 181.233 474.094 181.232 473.831C181.232 473.563 181.279 473.323 181.373 473.109C181.469 472.892 181.597 472.705 181.757 472.55C181.916 472.392 182.078 472.27 182.242 472.186L185.697 470.4L186.221 471.415L182.766 473.201C182.574 473.3 182.453 473.437 182.404 473.61C182.358 473.783 182.385 473.965 182.484 474.158C182.585 474.353 182.718 474.48 182.884 474.54C183.051 474.595 183.231 474.573 183.424 474.473L185.758 473.267L185.766 473.263C185.877 473.209 186.001 473.165 186.138 473.13C186.274 473.093 186.416 473.072 186.566 473.067C186.717 473.062 186.871 473.075 187.026 473.107C187.18 473.136 187.33 473.19 187.476 473.27C187.625 473.348 187.766 473.453 187.897 473.586C188.029 473.719 188.146 473.886 188.25 474.087ZM193.612 467.595L191.375 468.751L193.744 473.335L192.729 473.859L190.36 469.276L188.119 470.434L187.595 469.419L193.088 466.58L193.612 467.595ZM203.068 468.516L202.053 469.041L201.342 467.667L197.774 469.511L198.484 470.885L197.469 471.41L196.023 468.61C195.812 468.202 195.688 467.789 195.651 467.373C195.614 466.957 195.656 466.561 195.778 466.184C195.9 465.808 196.096 465.463 196.366 465.149C196.635 464.834 196.972 464.573 197.375 464.365L199.663 463.182C199.733 463.146 199.806 463.125 199.882 463.118C199.958 463.112 200.032 463.12 200.103 463.143C200.174 463.166 200.239 463.201 200.297 463.25C200.355 463.299 200.402 463.359 200.439 463.429L203.068 468.516ZM197.25 468.496L200.818 466.652L199.684 464.458L197.9 465.38C197.869 465.396 197.805 465.435 197.709 465.498C197.614 465.557 197.51 465.639 197.396 465.744C197.284 465.848 197.175 465.975 197.069 466.126C196.962 466.277 196.882 466.45 196.828 466.646C196.774 466.842 196.759 467.061 196.782 467.303C196.806 467.541 196.891 467.802 197.038 468.086L197.25 468.496ZM208.964 460.76C209.083 460.992 209.162 461.213 209.199 461.425C209.236 461.637 209.241 461.839 209.215 462.03C209.19 462.218 209.139 462.394 209.062 462.559C208.986 462.724 208.894 462.875 208.787 463.013C208.682 463.147 208.565 463.265 208.436 463.367C208.311 463.469 208.185 463.552 208.06 463.616L211.127 464.351L209.557 465.163L206.495 464.425L205.765 464.802L205.24 463.787L207.536 462.601C207.658 462.525 207.76 462.439 207.843 462.343C207.927 462.244 207.988 462.138 208.025 462.026C208.066 461.913 208.081 461.795 208.07 461.672C208.058 461.546 208.017 461.417 207.949 461.285L207.618 460.644C207.588 460.587 207.558 460.548 207.528 460.528C207.499 460.503 207.469 460.49 207.439 460.489C207.41 460.485 207.382 460.488 207.354 460.498C207.33 460.508 207.307 460.518 207.286 460.529L203.936 462.26L206.305 466.843L205.29 467.368L202.661 462.281C202.625 462.211 202.604 462.138 202.597 462.062C202.591 461.986 202.598 461.913 202.618 461.843C202.641 461.772 202.676 461.707 202.725 461.649C202.774 461.591 202.835 461.543 202.908 461.505L206.761 459.514C206.988 459.397 207.201 459.34 207.4 459.342C207.598 459.342 207.777 459.38 207.938 459.455C208.1 459.526 208.239 459.622 208.355 459.744C208.473 459.864 208.564 459.987 208.629 460.112L208.964 460.76ZM215.587 456.239L213.35 457.395L215.719 461.978L214.704 462.503L212.335 457.92L210.094 459.078L209.569 458.063L215.062 455.224L215.587 456.239Z" fill="#11056B"/>
<path d="M258.673 415.247C258.737 415.372 258.784 415.517 258.814 415.683C258.846 415.848 258.845 416.017 258.809 416.19C258.776 416.362 258.703 416.53 258.59 416.694C258.475 416.856 258.305 416.995 258.078 417.112L254.225 419.103C254.152 419.141 254.078 419.163 254.002 419.169C253.926 419.176 253.853 419.169 253.784 419.149C253.715 419.125 253.652 419.088 253.593 419.039C253.535 418.99 253.487 418.929 253.449 418.856L251.085 414.281C251.048 414.21 251.027 414.137 251.021 414.061C251.015 413.986 251.022 413.913 251.042 413.843C251.064 413.772 251.1 413.707 251.149 413.649C251.198 413.591 251.259 413.543 251.332 413.505L254.728 411.75C254.853 411.685 254.999 411.638 255.165 411.608C255.331 411.579 255.501 411.582 255.674 411.617C255.849 411.649 256.017 411.722 256.178 411.837C256.342 411.95 256.483 412.119 256.6 412.346L256.698 412.537C256.791 412.717 256.862 412.926 256.909 413.165C256.956 413.402 256.96 413.647 256.923 413.9C257.074 413.911 257.224 413.941 257.374 413.988C257.527 414.035 257.675 414.104 257.817 414.195C257.96 414.286 258.096 414.402 258.225 414.543C258.354 414.684 258.47 414.854 258.572 415.052L258.673 415.247ZM257.557 415.576C257.488 415.443 257.406 415.336 257.311 415.253C257.214 415.168 257.108 415.107 256.994 415.071C256.879 415.034 256.759 415.024 256.632 415.04C256.503 415.054 256.373 415.095 256.24 415.163L253.952 416.346L253.424 415.323L255.255 414.376C255.388 414.308 255.497 414.226 255.584 414.132C255.669 414.035 255.73 413.93 255.766 413.815C255.803 413.701 255.814 413.581 255.799 413.457C255.785 413.329 255.744 413.198 255.676 413.066L255.577 412.874C255.501 412.729 255.394 412.692 255.253 412.765L252.36 414.26L254.204 417.828L257.554 416.097C257.572 416.088 257.593 416.075 257.618 416.059C257.643 416.043 257.662 416.023 257.676 415.999C257.69 415.975 257.697 415.944 257.697 415.904C257.696 415.865 257.682 415.818 257.654 415.763L257.557 415.576Z" fill="#11056B"/>
<path d="M309.214 392.525L308.199 393.049L307.489 391.675L303.921 393.519L304.631 394.894L303.616 395.418L302.17 392.619C301.958 392.21 301.834 391.798 301.797 391.382C301.76 390.966 301.803 390.569 301.925 390.193C302.047 389.817 302.243 389.471 302.512 389.157C302.782 388.843 303.119 388.582 303.522 388.373L305.81 387.191C305.88 387.155 305.953 387.133 306.029 387.127C306.105 387.121 306.178 387.129 306.25 387.152C306.321 387.174 306.385 387.21 306.444 387.259C306.502 387.308 306.549 387.368 306.586 387.438L309.214 392.525ZM303.396 392.504L306.965 390.66L305.831 388.466L304.047 389.388C304.015 389.404 303.952 389.444 303.856 389.507C303.761 389.566 303.656 389.648 303.542 389.753C303.431 389.856 303.322 389.984 303.215 390.134C303.109 390.285 303.028 390.459 302.975 390.655C302.921 390.85 302.906 391.07 302.928 391.312C302.953 391.55 303.038 391.811 303.185 392.094L303.396 392.504Z" fill="#11056B"/>
<defs>
<filter id="filter0_d_1_6" x="31" y="42" width="342" height="536" filterUnits="userSpaceOnUse" color-interpolation-filters="sRGB">
<feFlood flood-opacity="0" result="BackgroundImageFix"/>
<feColorMatrix in="SourceAlpha" type="matrix" values="0 0 0 0 0 0 0 0 0 0 0 0 0 0 0 0 0 0 127 0" result="hardAlpha"/>
<feOffset dx="14" dy="18"/>
<feGaussianBlur stdDeviation="9"/>
<feComposite in2="hardAlpha" operator="out"/>
<feColorMatrix type="matrix" values="0 0 0 0 0 0 0 0 0 0 0 0 0 0 0 0 0 0 0.25 0"/>
<feBlend mode="normal" in2="BackgroundImageFix" result="effect1_dropShadow_1_6"/>
<feBlend mode="normal" in="SourceGraphic" in2="effect1_dropShadow_1_6" result="shape"/>
</filter>
<filter id="filter1_ii_1_6" x="117.29" y="436.29" width="45.1918" height="37.5153" filterUnits="userSpaceOnUse" color-interpolation-filters="sRGB">
<feFlood flood-opacity="0" result="BackgroundImageFix"/>
<feBlend mode="normal" in="SourceGraphic" in2="BackgroundImageFix" result="shape"/>
<feColorMatrix in="SourceAlpha" type="matrix" values="0 0 0 0 0 0 0 0 0 0 0 0 0 0 0 0 0 0 127 0" result="hardAlpha"/>
<feOffset dy="3"/>
<feGaussianBlur stdDeviation="2.7"/>
<feComposite in2="hardAlpha" operator="arithmetic" k2="-1" k3="1"/>
<feColorMatrix type="matrix" values="0 0 0 0 0 0 0 0 0 0 0 0 0 0 0 0 0 0 0.47 0"/>
<feBlend mode="normal" in2="shape" result="effect1_innerShadow_1_6"/>
<feColorMatrix in="SourceAlpha" type="matrix" values="0 0 0 0 0 0 0 0 0 0 0 0 0 0 0 0 0 0 127 0" result="hardAlpha"/>
<feOffset dy="-2"/>
<feGaussianBlur stdDeviation="1"/>
<feComposite in2="hardAlpha" operator="arithmetic" k2="-1" k3="1"/>
<feColorMatrix type="matrix" values="0 0 0 0 1 0 0 0 0 1 0 0 0 0 1 0 0 0 0.43 0"/>
<feBlend mode="normal" in2="effect1_innerShadow_1_6" result="effect2_innerShadow_1_6"/>
</filter>
<filter id="filter2_ii_1_6" x="169.29" y="436.29" width="45.1918" height="37.5153" filterUnits="userSpaceOnUse" color-interpolation-filters="sRGB">
<feFlood flood-opacity="0" result="BackgroundImageFix"/>
<feBlend mode="normal" in="SourceGraphic" in2="BackgroundImageFix" result="shape"/>
<feColorMatrix in="SourceAlpha" type="matrix" values="0 0 0 0 0 0 0 0 0 0 0 0 0 0 0 0 0 0 127 0" result="hardAlpha"/>
<feOffset dy="3"/>
<feGaussianBlur stdDeviation="2.7"/>
<feComposite in2="hardAlpha" operator="arithmetic" k2="-1" k3="1"/>
<feColorMatrix type="matrix" values="0 0 0 0 0 0 0 0 0 0 0 0 0 0 0 0 0 0 0.47 0"/>
<feBlend mode="normal" in2="shape" result="effect1_innerShadow_1_6"/>
<feColorMatrix in="SourceAlpha" type="matrix" values="0 0 0 0 0 0 0 0 0 0 0 0 0 0 0 0 0 0 127 0" result="hardAlpha"/>
<feOffset dy="-2"/>
<feGaussianBlur stdDeviation="1"/>
<feComposite in2="hardAlpha" operator="arithmetic" k2="-1" k3="1"/>
<feColorMatrix type="matrix" values="0 0 0 0 1 0 0 0 0 1 0 0 0 0 1 0 0 0 0.43 0"/>
<feBlend mode="normal" in2="effect1_innerShadow_1_6" result="effect2_innerShadow_1_6"/>
</filter>
<linearGradient id="paint0_linear_1_6" x1="107.5" y1="338" x2="107.5" y2="433" gradientUnits="userSpaceOnUse">
<stop stop-color="#DED0C7"/>
<stop offset="1" stop-color="#EDE3D9"/>
</linearGradient>
<linearGradient id="paint1_linear_1_6" x1="138.313" y1="458.99" x2="138.874" y2="467.723" gradientUnits="userSpaceOnUse">
<stop stop-color="#93979A"/>
<stop offset="1" stop-color="#585659"/>
</linearGradient>
<linearGradient id="paint2_linear_1_6" x1="190.313" y1="458.99" x2="190.644" y2="468.168" gradientUnits="userSpaceOnUse">
<stop stop-color="#93979A"/>
<stop offset="1" stop-color="#585659"/>
</linearGradient>
<linearGradient id="paint3_linear_1_6" x1="247.388" y1="375.51" x2="249.605" y2="422.225" gradientUnits="userSpaceOnUse">
<stop stop-color="#D0C1B9"/>
<stop offset="1" stop-color="#FBF7EC"/>
</linearGradient>
<linearGradient id="paint4_linear_1_6" x1="242" y1="367" x2="242" y2="403" gradientUnits="userSpaceOnUse">
<stop stop-color="#B9156E"/>
<stop offset="1" stop-color="#8F0048"/>
</linearGradient>
<linearGradient id="paint5_linear_1_6" x1="291" y1="343" x2="291" y2="379" gradientUnits="userSpaceOnUse">
<stop stop-color="#B9156E"/>
<stop offset="1" stop-color="#8F0048"/>
</linearGradient>
</defs>
</svg>
